<svg aria-hidden="true" style="position: absolute; width: 0; height: 0; overflow: hidden;" version="1.1" xmlns="http://www.w3.org/2000/svg" xmlns:xlink="http://www.w3.org/1999/xlink">
<defs>
<symbol id="icon-arrow" viewBox="0 0 173 32">
<path fill="#d1c12b" style="fill: var(--color1, #d1c12b)" d="M161.454 17.499l-5.943 5.913c-0.57 0.6-0.57 1.531 0 2.131 0.6 0.6 1.531 0.6 2.131 0l8.494-8.494c0.6-0.6 0.6-1.531 0-2.131l-8.494-8.494c-0.6-0.57-1.531-0.57-2.131 0-0.57 0.6-0.57 1.531 0 2.131l5.943 5.943h-155.451v3.002h155.451z"></path>
<path fill="#a332ca" style="fill: var(--color2, #a332ca)" d="M167.457 17.499l-5.943 5.913c-0.57 0.6-0.57 1.531 0 2.131 0.6 0.6 1.531 0.6 2.131 0l8.494-8.494c0.6-0.6 0.6-1.531 0-2.131l-8.494-8.494c-0.6-0.57-1.531-0.57-2.131 0-0.57 0.6-0.57 1.531 0 2.131l5.943 5.943h-155.451v3.002h155.451z"></path>
<path fill="#fff" style="fill: var(--color3, #fff)" d="M164.455 17.499l-5.943 5.913c-0.57 0.6-0.57 1.531 0 2.131 0.6 0.6 1.531 0.6 2.131 0l8.494-8.494c0.6-0.6 0.6-1.531 0-2.131l-8.494-8.494c-0.6-0.57-1.531-0.57-2.131 0-0.57 0.6-0.57 1.531 0 2.131l5.943 5.943h-155.451v3.002h155.451z"></path>
</symbol>
<symbol id="icon-acent" viewBox="0 0 46 32">
<path d="M3.36 0.187c-4.053 0.853-4.453 3.36-1.227 7.813 0.347 0.507 0.747 0.987 0.853 1.067 0.293 0.267 1.573 1.227 2.853 2.107 1.12 0.8 5.013 2.827 5.467 2.827 0.133 0 0.667 0.213 1.173 0.48 0.533 0.24 1.067 0.453 1.227 0.453 0.133 0 0.507 0.133 0.853 0.267 0.32 0.16 1.173 0.453 1.893 0.667 3.387 1.067 2.8 3.093-0.693 2.32-0.427-0.080-1.573-0.32-2.507-0.48-0.933-0.187-1.893-0.4-2.107-0.48-2.347-1.067-7.12-2.267-7.12-1.787 0 0.667 2.427 4.267 3.547 5.227 1.307 1.147 4.773 3.227 5.333 3.227 0.133 0 0.613 0.16 1.040 0.347 1.36 0.613 2.693 0.987 3.413 0.987 2.373 0 3.627 0.773 2.96 1.813-0.4 0.56-4.72 0.72-6.507 0.213-2.267-0.64-3.467-0.56-2.96 0.213 0.187 0.32 4.427 3.093 4.693 3.093 0.107 0 0.587 0.187 1.040 0.427 1.84 0.88 8.747 1.333 11.893 0.72 3.627-0.693 3.867-0.747 4.24-0.933 0.213-0.133 0.613-0.213 0.88-0.213 2.48 0 7.44-2.72 10.32-5.707 2.507-2.533 2.587-2.96 1.013-4.48-0.347-0.32-0.747-0.88-0.933-1.227-0.4-0.88-5.627-6.133-7.44-7.467-1.813-1.36-4.987-3.493-5.893-3.973-0.373-0.213-1.2-0.667-1.813-1.040-0.64-0.373-1.627-0.88-2.187-1.147-0.587-0.267-1.227-0.587-1.44-0.667-0.667-0.347-3.573-1.36-4.853-1.707-0.667-0.187-1.44-0.427-1.707-0.533s-0.933-0.32-1.52-0.48c-2.72-0.747-3.36-0.933-3.92-1.093-0.32-0.107-0.8-0.187-1.093-0.187s-0.72-0.107-0.933-0.213c-1.067-0.587-5.893-0.88-7.84-0.453z"></path>
</symbol>
<symbol id="icon-tik-tok" viewBox="0 0 28 32">
<path fill="#fff" style="fill: var(--color3, #fff)" d="M14.613 0.021c-0.043 0.043-0.064 5.248-0.064 11.605v11.52l-0.235 0.597c-1.301 3.499-5.675 4.245-7.957 1.365-2.667-3.371 0.469-8.299 4.651-7.339 0.555 0.128 0.533 0.213 0.533-2.88 0-3.2 0.149-2.88-1.301-2.923-12.288-0.405-14.165 17.003-2.133 19.819 4.395 1.045 9.707-2.048 11.221-6.528 0.555-1.6 0.533-1.408 0.576-8.256 0.021-4.949 0.043-6.272 0.128-6.272 0.064 0 0.277 0.107 0.469 0.256 1.493 1.067 4.181 1.984 6.443 2.176 0.896 0.064 0.832 0.299 0.789-2.795l-0.021-2.411-0.384-0.085c-4.523-0.811-7.061-3.179-7.531-7.061l-0.107-0.789-2.517-0.021c-1.365-0.021-2.539 0-2.56 0.021z"></path>
</symbol>
<symbol id="icon-instagram" viewBox="0 0 32 32">
<path fill="none" stroke-linejoin="round" stroke-linecap="butt" stroke-miterlimit="4" stroke-width="3.5556" d="M23.111 1.778c3.911 0 7.111 3.182 7.111 7.111v14.222c0 3.911-3.2 7.111-7.111 7.111h-14.222c-3.929 0-7.111-3.2-7.111-7.111v-14.222c0-3.929 3.182-7.111 7.111-7.111h14.222z"></path>
<path fill="none" stroke-linejoin="round" stroke-linecap="butt" stroke-miterlimit="4" stroke-width="3.5556" d="M16 21.333c-2.951 0-5.333-2.4-5.333-5.333 0-2.951 2.382-5.333 5.333-5.333 2.933 0 5.333 2.382 5.333 5.333 0 2.933-2.4 5.333-5.333 5.333z"></path>
<path fill="none" stroke-linejoin="round" stroke-linecap="round" stroke-miterlimit="4" stroke-width="3.5556" d="M24 8v0"></path>
</symbol>
<symbol id="icon-kontakt" viewBox="0 0 56 32">
<path  d="M22.784 0.043c-2.112 0.192-3.328 0.683-3.925 1.579-0.299 0.427-0.256 0.533 0.299 0.661 1.813 0.448 2.475 1.259 2.837 3.541 0.149 0.875 0.149 6.101 0.021 6.933-0.384 2.219-0.789 2.88-1.685 2.88-1.131-0.021-2.88-2.048-5.12-5.931-0.085-0.149-0.341-0.576-0.576-0.981-0.363-0.661-1.685-3.285-2.027-4.075-0.085-0.171-0.235-0.512-0.363-0.789-0.107-0.256-0.213-0.491-0.213-0.533 0-0.512-0.789-1.451-1.493-1.749l-0.427-0.192h-4.245c-5.504 0-5.867 0.085-5.867 1.216-0.021 0.469 0.021 0.555 0.747 2.155 0.896 2.005 2.581 5.397 3.691 7.445 0.171 0.299 0.448 0.811 0.619 1.131 0.171 0.299 0.512 0.875 0.725 1.259 0.235 0.405 0.491 0.853 0.576 1.003 0.107 0.171 0.213 0.341 0.235 0.384 0.043 0.043 0.149 0.213 0.235 0.384 0.512 0.896 2.56 4.053 3.115 4.757 0.128 0.171 0.491 0.661 0.811 1.088 3.52 4.715 7.616 7.787 11.947 8.96 0.96 0.256 1.237 0.32 1.771 0.427 0.32 0.043 0.768 0.128 0.981 0.171 0.64 0.107 5.632 0.085 5.995-0.021 0.853-0.299 1.344-0.939 1.344-1.749 0-2.112 0.576-4.224 1.365-4.971 1.195-1.152 2.325-0.512 5.312 2.965 2.069 2.411 3.456 3.413 5.397 3.925 0.683 0.192 9.109-0.043 9.771-0.256 3.072-1.003 1.643-3.797-5.333-10.347-2.667-2.496-2.837-3.157-1.472-5.269 0.256-0.384 0.683-1.003 0.981-1.387 0.512-0.704 1.728-2.261 1.899-2.475 0.107-0.107 1.088-1.451 1.579-2.091 2.923-3.968 4.331-6.869 3.797-7.872-0.427-0.853-0.576-0.875-6.677-0.811-6.336 0.064-6.059 0-6.656 1.493-0.043 0.107-0.149 0.363-0.256 0.597-0.085 0.213-0.171 0.405-0.171 0.427s-0.085 0.235-0.192 0.491c-0.107 0.235-0.277 0.619-0.384 0.853-0.363 0.811-1.301 2.688-1.707 3.392-0.235 0.384-0.491 0.832-0.576 0.981-0.149 0.256-0.363 0.619-1.216 1.941-2.816 4.373-4.757 5.141-5.376 2.133-0.107-0.512-0.085-5.973 0.043-9.237 0.085-2.005-0.149-2.965-0.853-3.584-0.384-0.363-0.811-0.512-2.027-0.768-0.555-0.128-6.123-0.192-7.253-0.085z"></path>
</symbol>
<symbol id="icon-telegram" viewBox="0 0 38 32">
<path d="M35.563 0.107c-0.213 0.064-1.045 0.384-1.28 0.491-0.064 0.021-0.491 0.192-0.939 0.363s-0.853 0.32-0.917 0.341c-0.064 0.021-0.469 0.192-0.917 0.363s-0.853 0.341-0.896 0.363c-0.064 0.021-0.533 0.192-1.045 0.405-0.512 0.192-0.981 0.384-1.045 0.405s-0.469 0.171-0.917 0.341c-0.448 0.171-0.853 0.341-0.896 0.363-0.064 0.021-0.171 0.064-0.235 0.085s-0.491 0.192-0.939 0.363c-0.448 0.171-0.853 0.341-0.917 0.363-0.043 0.021-0.469 0.171-0.917 0.363-0.448 0.171-0.853 0.32-0.896 0.341-0.064 0.021-0.533 0.213-1.045 0.405-0.512 0.213-0.981 0.384-1.045 0.405-0.043 0.021-0.469 0.192-0.917 0.363-0.427 0.171-0.853 0.341-0.939 0.363-0.064 0.021-0.171 0.064-0.213 0.085-0.064 0.021-0.469 0.192-0.917 0.363s-0.853 0.32-0.917 0.341c-0.043 0.043-0.469 0.192-0.917 0.363-0.427 0.171-0.853 0.341-0.896 0.363-0.064 0.021-0.533 0.192-1.045 0.405-0.512 0.192-0.981 0.384-1.045 0.405-0.043 0.021-0.469 0.171-0.896 0.341-0.448 0.171-0.875 0.341-0.939 0.363s-0.171 0.064-0.235 0.107c-0.043 0.021-0.469 0.171-0.917 0.341-0.448 0.192-0.853 0.341-0.917 0.363-0.043 0.021-0.469 0.192-0.896 0.363-0.448 0.171-0.875 0.32-0.917 0.341-0.064 0.021-0.533 0.213-1.045 0.405-0.512 0.213-0.981 0.384-1.045 0.405-0.043 0.021-0.512 0.213-1.024 0.405-0.533 0.213-0.981 0.384-1.045 0.405s-0.469 0.192-0.917 0.363c-0.448 0.171-0.853 0.341-0.917 0.363-0.043 0.021-0.171 0.064-0.277 0.107-1.344 0.491-1.195 2.581 0.192 2.581 0.021 0 0.107 0.021 0.171 0.043s0.299 0.085 0.512 0.149c0.213 0.064 0.533 0.149 0.704 0.213 0.192 0.043 0.405 0.107 0.512 0.149 0.235 0.064 0.853 0.235 1.003 0.299 0.085 0.021 0.213 0.064 0.341 0.085 0.235 0.064 0.853 0.256 1.024 0.32 0.085 0.021 0.235 0.064 0.341 0.085 0.107 0.043 0.363 0.107 0.533 0.171 0.192 0.043 0.512 0.149 0.704 0.192 0.171 0.064 0.427 0.128 0.533 0.171 0.107 0.021 0.256 0.064 0.32 0.085 0.085 0.021 0.299 0.107 0.512 0.149 0.213 0.064 0.448 0.128 0.512 0.149 0.064 0.043 0.256 0.085 0.427 0.128 0.405 0.128 0.405 0.128 0.533 0.555 0.064 0.192 0.149 0.491 0.213 0.64 0.043 0.149 0.149 0.533 0.256 0.811 0.085 0.299 0.213 0.725 0.299 0.96 0.064 0.256 0.213 0.683 0.299 0.981 0.085 0.277 0.213 0.64 0.256 0.811 0.043 0.149 0.192 0.576 0.299 0.96 0.128 0.363 0.256 0.811 0.299 0.96 0.064 0.149 0.192 0.576 0.32 0.96 0.107 0.384 0.256 0.811 0.299 0.96s0.171 0.512 0.256 0.811c0.384 1.28 0.469 1.472 0.747 1.771 0.427 0.427 1.173 0.555 1.707 0.299 0.256-0.107 1.451-1.28 4.181-4.096 0.917-0.939 0.768-0.896 1.429-0.427 0.555 0.405 1.003 0.747 1.643 1.216 0.875 0.64 1.152 0.832 1.728 1.28 0.341 0.235 0.981 0.704 1.408 1.024 0.448 0.32 1.131 0.832 1.515 1.109 0.405 0.299 0.896 0.661 1.109 0.811 0.192 0.149 0.491 0.363 0.64 0.491 1.472 1.088 3.008 0.491 3.328-1.301 0.021-0.085 0.064-0.256 0.085-0.363 0.021-0.128 0.064-0.32 0.085-0.469 0.043-0.128 0.107-0.469 0.149-0.725 0.064-0.277 0.128-0.597 0.171-0.747 0.021-0.128 0.064-0.341 0.085-0.469 0.043-0.128 0.085-0.341 0.107-0.491 0.021-0.128 0.085-0.363 0.107-0.469 0.021-0.128 0.064-0.363 0.107-0.491 0.021-0.149 0.085-0.469 0.128-0.704 0.213-1.003 0.341-1.536 0.363-1.728 0.021-0.107 0.085-0.341 0.107-0.491 0.043-0.149 0.085-0.363 0.107-0.469 0.043-0.192 0.149-0.747 0.363-1.728 0.043-0.256 0.107-0.576 0.149-0.704 0.021-0.149 0.064-0.363 0.085-0.491 0.043-0.128 0.085-0.341 0.107-0.469 0.021-0.149 0.085-0.363 0.107-0.491s0.064-0.341 0.085-0.448c0.043-0.235 0.171-0.853 0.384-1.749 0.043-0.256 0.107-0.576 0.128-0.725 0.043-0.128 0.085-0.341 0.107-0.469s0.085-0.341 0.107-0.491c0.021-0.128 0.085-0.448 0.149-0.704 0.213-0.981 0.32-1.536 0.363-1.728 0.021-0.107 0.064-0.32 0.085-0.469 0.043-0.171 0.085-0.384 0.107-0.491 0.043-0.192 0.149-0.747 0.363-1.728 0.064-0.256 0.128-0.555 0.149-0.704s0.064-0.363 0.107-0.491c0.021-0.107 0.064-0.341 0.085-0.469 0.043-0.149 0.085-0.363 0.107-0.491 0.043-0.128 0.085-0.32 0.107-0.448 0.043-0.235 0.171-0.832 0.363-1.749 0.043-0.256 0.107-0.576 0.149-0.704 0.021-0.149 0.064-0.363 0.085-0.491 0.043-0.128 0.085-0.341 0.107-0.491 0.021-0.128 0.107-0.469 0.171-0.725 0.427-1.963-0.619-3.307-2.176-2.773zM31.083 5.803c0.341 0.277 0.235 0.427-1.259 1.749-0.469 0.405-0.853 0.747-0.875 0.747 0 0.021-0.213 0.213-0.448 0.405-0.235 0.213-0.448 0.405-0.448 0.405-0.021 0.021-0.405 0.363-0.875 0.768-0.448 0.405-0.853 0.747-0.853 0.768-0.021 0-0.235 0.192-0.469 0.405-0.235 0.192-0.427 0.384-0.448 0.405-0.021 0-0.405 0.341-0.853 0.747-0.469 0.405-0.853 0.747-0.875 0.768 0 0.021-0.213 0.192-0.448 0.405s-0.448 0.384-0.469 0.405c0 0.021-0.384 0.363-0.853 0.768-0.469 0.384-0.853 0.725-0.853 0.747-0.021 0.021-0.235 0.192-0.469 0.405s-0.448 0.405-0.448 0.405c-0.021 0.021-0.405 0.363-0.875 0.768-0.448 0.405-0.832 0.747-0.853 0.747-0.021 0.021-0.213 0.213-0.448 0.405-0.235 0.213-0.448 0.405-0.469 0.427 0 0-0.405 0.341-0.853 0.747-0.469 0.405-0.853 0.747-0.853 0.768-0.021 0-0.235 0.192-0.469 0.405-0.469 0.427-0.661 0.725-0.661 1.045 0 0.107-0.021 0.32-0.043 0.491s-0.064 0.555-0.107 0.832c-0.021 0.299-0.064 0.704-0.107 0.917-0.021 0.213-0.064 0.619-0.085 0.917-0.171 1.536-0.277 2.219-0.341 2.283-0.107 0.085-0.192-0.064-0.32-0.448-0.064-0.213-0.171-0.512-0.213-0.661-0.085-0.299-0.32-1.067-0.512-1.664-0.043-0.192-0.149-0.469-0.192-0.619s-0.149-0.448-0.213-0.661c-0.064-0.213-0.149-0.512-0.192-0.661s-0.171-0.512-0.256-0.811c-0.085-0.299-0.192-0.661-0.256-0.811-0.043-0.149-0.128-0.448-0.192-0.64s-0.171-0.555-0.256-0.832c-0.363-1.109-0.363-1.109 1.813-2.475 1.088-0.661 1.387-0.853 1.835-1.131 0.213-0.128 0.533-0.32 0.725-0.448s0.512-0.32 0.704-0.448c0.192-0.107 0.363-0.213 0.363-0.213 0.021 0 0.192-0.107 0.363-0.213 0.384-0.235 0.96-0.597 1.493-0.939 0.64-0.384 1.045-0.64 1.408-0.875 0.213-0.128 0.725-0.448 1.152-0.704 1.173-0.725 1.387-0.875 1.792-1.131 0.213-0.128 0.555-0.32 0.747-0.448s0.512-0.32 0.683-0.427c0.192-0.128 0.363-0.235 0.384-0.235 0 0 0.171-0.085 0.363-0.213 0.363-0.235 0.939-0.597 1.472-0.939 0.64-0.384 1.045-0.64 1.429-0.875 0.213-0.128 0.725-0.448 1.131-0.704 0.427-0.256 0.917-0.576 1.109-0.704 0.384-0.235 0.555-0.256 0.747-0.128z"></path>
</symbol>
<symbol id="icon-logo" viewBox="0 0 91 32">
<path fill="#d1c12b" style="fill: var(--color1, #d1c12b)" d="M3.431 2.124c-1.668 0.381-1.838 1.518-0.511 3.506 0.15 0.225 0.313 0.449 0.354 0.483 0.123 0.116 0.66 0.545 1.185 0.946 0.47 0.361 2.077 1.26 2.26 1.266 0.054 0 0.272 0.095 0.49 0.211s0.443 0.211 0.504 0.211c0.054 0 0.218 0.054 0.354 0.123 0.136 0.061 0.483 0.197 0.783 0.3 1.403 0.477 1.157 1.382-0.286 1.042-0.184-0.048-0.647-0.143-1.042-0.225-0.388-0.075-0.776-0.177-0.865-0.218-0.974-0.47-2.948-1.008-2.948-0.797 0 0.306 1.008 1.92 1.464 2.349 0.538 0.511 1.974 1.443 2.206 1.443 0.054 0 0.252 0.075 0.443 0.163 0.552 0.266 1.103 0.436 1.403 0.436 0.987 0 1.505 0.34 1.226 0.81-0.163 0.259-1.947 0.327-2.696 0.095-0.933-0.286-1.43-0.245-1.226 0.102 0.082 0.136 1.832 1.382 1.947 1.382 0.048 0 0.238 0.088 0.436 0.191 0.756 0.402 3.615 0.599 4.909 0.334 1.511-0.313 1.6-0.334 1.763-0.429 0.088-0.048 0.245-0.095 0.354-0.095 1.035 0 3.084-1.219 4.283-2.553 1.028-1.144 1.069-1.334 0.415-2.015-0.143-0.143-0.313-0.388-0.381-0.552-0.17-0.395-2.335-2.744-3.084-3.35-0.756-0.606-2.063-1.566-2.431-1.784-0.157-0.095-0.497-0.3-0.763-0.463-0.259-0.17-0.667-0.402-0.899-0.517-0.238-0.123-0.504-0.259-0.592-0.306-0.286-0.143-1.484-0.599-2.008-0.756-0.279-0.088-0.599-0.197-0.708-0.245s-0.395-0.143-0.633-0.211c-1.123-0.334-1.389-0.415-1.614-0.49-0.136-0.048-0.34-0.082-0.463-0.082-0.116 0-0.293-0.048-0.388-0.102-0.436-0.259-2.437-0.388-3.241-0.204zM23.483 12.065c-0.402 0.409-0.967 1.879-1.28 3.336-0.17 0.79-0.211 0.878-0.388 0.926-1.192 0.313-1.566 1.518-0.64 2.056 0.197 0.109 0.361 0.211 0.381 0.225 0.014 0.014-0.034 0.313-0.102 0.66-0.449 2.254-0.32 3.071 0.483 3.071 0.477 0 0.701-0.313 0.81-1.13 0.266-1.974 0.49-2.887 0.674-2.723 0.061 0.061 0.123 0.061 0.177 0 0.041-0.048 0.32-0.075 0.613-0.061l0.538 0.027 0.211 0.899c0.538 2.294 0.892 3.071 1.409 3.071 0.402 0 0.538-0.422 0.402-1.287-0.048-0.3-0.123-0.776-0.163-1.062-0.041-0.279-0.136-0.769-0.204-1.089-0.123-0.565-0.123-0.586 0.034-0.769 0.524-0.633 0.409-1.382-0.272-1.716-0.368-0.177-0.409-0.354-0.429-1.627 0-0.381-0.020-0.613-0.041-0.524-0.129 0.572-0.218 0.327-0.327-0.878-0.075-0.803-0.252-1.212-0.531-1.212-0.054 0-0.204-0.095-0.334-0.211-0.327-0.3-0.715-0.293-1.021 0.020zM57.532 11.976c-0.408 0.272-0.776 1.157-1.273 3.050l-0.334 1.273-0.354 0.109c-1.089 0.347-1.28 2.083-0.225 2.083 0.197 0 0.197 0.17-0.007 1.11-0.082 0.402-0.177 1.062-0.204 1.471l-0.054 0.742 0.245 0.259c0.62 0.674 1.198 0.245 1.396-1.014 0.354-2.288 0.463-2.717 0.626-2.567 0.075 0.068 0.123 0.068 0.157 0.007 0.061-0.109 1.117-0.123 1.178-0.014 0.027 0.041 0.17 0.599 0.313 1.246 0.517 2.213 1.185 3.227 1.654 2.499 0.191-0.293 0.048-1.682-0.354-3.418-0.089-0.381-0.082-0.409 0.157-0.722 0.429-0.565 0.245-1.355-0.381-1.62-0.32-0.136-0.402-0.436-0.402-1.491 0-0.238-0.034-0.334-0.116-0.334-0.068 0-0.116-0.034-0.116-0.082 0-1.144-0.259-2.165-0.572-2.274-0.095-0.034-0.286-0.15-0.422-0.259-0.286-0.238-0.613-0.259-0.912-0.054zM39.653 11.969c-0.027 0.034-0.054 0.368-0.054 0.749 0 1.879-0.3 3.867-0.844 5.631-0.279 0.872-0.334 0.803-0.558-0.708-0.095-0.64-0.225-1.409-0.286-1.709-0.572-2.86-0.694-3.234-1.232-3.615-0.919-0.64-1.212 0.272-0.783 2.424 0.381 1.893 0.701 4.037 0.763 5.086 0.041 0.763 0.082 0.98 0.231 1.232 0.095 0.163 0.204 0.395 0.231 0.511 0.545 2.049 3.404-1.389 4.167-4.997 0.599-2.832 0.361-4.419-0.674-4.534l-0.517-0.061-0.054 1.328c-0.075 1.9-0.286 3.186-0.769 4.718-0.252 0.803-0.613 1.532-0.708 1.43-0.048-0.054-0.027-0.191 0.075-0.415 0.783-1.668 1.661-7.768 1.014-7.067zM67.268 12.133c-0.735 0.068-2.015 0.129-2.846 0.143s-1.464 0.048-1.416 0.082c0.048 0.041 0.272 0.068 0.497 0.068s0.436 0.048 0.47 0.102c0.041 0.075-0.238 0.082-1.13 0.041-1.859-0.088-2.111 0.354-0.987 1.682 0.266 0.313 0.66 0.422 1.716 0.477l1.021 0.048-0.014 0.3c-0.123 3.466-0.123 5.998 0.007 6.359 0.334 0.946 1.185 0.953 1.348 0.014 0.068-0.402 0.191-0.395 0.197 0.014 0.007 0.259 0.020 0.286 0.075 0.15 0.034-0.095 0.068-1.716 0.075-3.608 0-1.893 0.027-3.438 0.054-3.438 0.204 0 2.083-0.368 2.26-0.449 0.136-0.054 0.266-0.204 0.34-0.402 0.068-0.163 0.191-0.463 0.286-0.66 0.157-0.34 0.157-0.361 0.020-0.586-0.075-0.123-0.116-0.279-0.095-0.347 0.054-0.143-0.014-0.143-1.879 0.014zM28.146 12.289c-0.129 0.061-0.279 0.177-0.34 0.252s-0.157 0.143-0.211 0.143c-0.054 0-0.177 0.068-0.272 0.15l-0.177 0.157 0.136 0.701c0.088 0.422 0.184 0.701 0.238 0.701 0.136 0 0.163 0.088 0.511 1.58 0.17 0.701 0.415 1.743 0.545 2.301 0.286 1.198 0.272 1.076 0.129 1.076-0.163 0-0.225-0.177-0.436-1.198-0.102-0.497-0.218-0.933-0.252-0.974-0.075-0.102-0.007 0.415 0.15 1.123 0.136 0.654 0.102 0.817-0.157 0.708-1.273-0.524-1.355 1.205-0.082 1.845 0.626 0.32 0.763 0.422 0.851 0.667 0.245 0.626 0.926 0.831 1.471 0.436 0.163-0.116 0.225-0.116 0.579 0.007 4.112 1.396 5.671-1.743 2.744-5.529-2.437-3.152-4.385-4.643-5.426-4.146zM44.534 12.378c-0.347 0.136-0.722 0.49-0.892 0.844-0.061 0.129-0.191 0.272-0.293 0.306-1.069 0.443-1.539 5.236-0.701 7.163 0.98 2.267 3.554 1.893 4.357-0.633 0.599-1.893 0.054-6.768-0.79-7.101-0.068-0.027-0.252-0.197-0.402-0.374-0.32-0.368-0.701-0.429-1.28-0.204zM48.436 12.344c-0.32 0.143-0.361 0.395-0.266 1.634 0.231 2.989 0.334 4.167 0.408 4.596 0.041 0.252 0.075 1.117 0.075 1.913 0 1.825 0.020 1.852 1.26 1.552 0.926-0.232 2.383-0.388 3.377-0.374 1.232 0.020 1.45-0.15 1.151-0.885-0.061-0.15-0.129-0.374-0.15-0.497-0.102-0.504-1.505-0.688-3.043-0.388-0.769 0.15-0.701 0.347-0.871-2.567-0.089-1.403-0.204-2.9-0.259-3.323l-0.109-0.769-0.007 0.586c-0.014 0.62-0.129 0.708-0.211 0.163-0.054-0.368-0.191-1.103-0.245-1.314-0.061-0.259-0.783-0.47-1.11-0.327zM70.774 12.405c-1.26 0.538-1.471 7.244-0.245 7.666 0.088 0.034 0.3 0.279 0.47 0.545 1.614 2.58 4.255 1.723 5.045-1.641 0.497-2.138 0.34-5.93-0.266-6.414l-0.218-0.177-0.177 0.232c-0.102 0.15-0.245 0.238-0.368 0.238-0.511 0-0.545 0.15-0.552 2.288-0.007 4.344-0.429 5.494-1.682 4.603-0.259-0.184-0.715-1.92-0.831-3.132l-0.068-0.729 0.020 0.974c0.020 0.538 0 0.919-0.034 0.858-0.293-0.511-0.313-3.493-0.027-3.745 0.722-0.633-0.17-1.954-1.069-1.566zM77.773 12.494c-0.374 0.204-0.477 0.552-0.449 1.593 0.014 0.613-0.007 0.851-0.082 0.878s-0.095-0.163-0.102-0.763c-0.014-0.885-0.088-1.328-0.191-1.069-0.095 0.252 0.020 6.577 0.143 7.598 0.136 1.123 0.238 1.314 0.735 1.396 0.674 0.109 0.681 0.061 0.633-2.546-0.041-2.471 0-2.628 0.34-1.26 0.933 3.799 0.926 3.779 1.355 3.745l0.334-0.027 0.17-0.599c0.279-1.021 0.531-2.294 0.517-2.648-0.014-0.34 0.395-2.294 0.667-3.207 0.136-0.449 0.3-0.565 0.3-0.211 0 0.095 0.034 0.232 0.075 0.3 0.048 0.068 0.157 0.511 0.245 0.98 0.095 0.47 0.225 1.144 0.293 1.498 0.191 0.987 0.368 2.403 0.368 2.941 0 0.62 0.082 0.769 0.545 1.028 0.926 0.511 1.416-0.552 1.083-2.349-0.381-2.015-0.545-2.921-0.722-4.010-0.279-1.695-0.538-2.485-1.001-3.050-0.402-0.49-1.586-0.191-1.668 0.415-0.374 2.683-1.294 6.475-1.416 5.862-0.34-1.614-0.912-5.072-0.912-5.501 0-0.238-0.34-0.885-0.524-1.001-0.211-0.129-0.497-0.129-0.735 0.007zM48.688 12.752c-0.034 0.129-0.048 1.096-0.041 2.152 0.020 2.921-0.123 2.315-0.368-1.505-0.041-0.654-0.027-0.701 0.143-0.831 0.231-0.177 0.34-0.102 0.266 0.184zM78.706 13.603c0.041 0.082 0.116 0.415 0.17 0.742 0.048 0.334 0.163 0.953 0.245 1.389 0.225 1.164 0.075 1.375-0.191 0.259-0.504-2.172-0.599-3.18-0.225-2.39zM45.086 13.814c0.368 0.517 0.674 2.329 0.681 4.037 0.014 2.478-0.586 3.643-1.593 3.077-0.545-0.306-0.756-0.933-0.279-0.831 0.231 0.048 0.231 0.048 0.075-0.967-0.211-1.396-0.109-3.186 0.238-4.187 0.361-1.028 0.667-1.43 0.878-1.13zM62.645 14.168c0.572 0.136 0.667 0.197 0.402 0.266-0.238 0.061-0.953-0.136-0.994-0.279-0.041-0.129-0.027-0.129 0.592 0.014zM24.238 14.965c0.225 1.58 0.232 1.559-0.32 1.559-0.409 0-0.422-0.088-0.17-1.123 0.3-1.26 0.368-1.321 0.49-0.436zM58.26 15.564c0.095 0.919 0.082 0.96-0.415 0.96-0.395 0.007-0.395-0.014-0.17-1.028 0.32-1.423 0.436-1.409 0.586 0.068zM44.487 14.781c0.007 0.102 0.020 0.123 0.048 0.054 0.020-0.061 0.020-0.136-0.007-0.163s-0.041 0.020-0.041 0.109zM30.427 15.448c1.716 1.3 3.949 4.323 3.622 4.895-0.3 0.517-2.22 0.47-3.445-0.088-0.334-0.15-0.306-0.068-0.606-2.002-0.129-0.865-0.306-1.934-0.388-2.39-0.204-1.069-0.109-1.117 0.817-0.415zM27.792 16.443c0 0.061 0.027 0.088 0.054 0.054 0.027-0.027 0.027-0.082 0-0.109-0.027-0.034-0.054-0.007-0.054 0.054zM23.285 19.18c-0.068 0.306-0.15 0.688-0.17 0.851-0.102 0.837-0.123 1.198-0.054 1.198 0.034 0 0.088-0.238 0.116-0.531 0.034-0.286 0.109-0.824 0.177-1.192 0.157-0.837 0.109-1.062-0.068-0.327zM57.212 19.329c-0.116 0.552-0.279 2.206-0.177 1.811 0.068-0.293 0.368-2.403 0.34-2.437-0.014-0.014-0.089 0.266-0.163 0.626zM51.602 22.203l-0.94 0.095 1.593 0.007c1.083 0 1.586-0.027 1.566-0.088-0.034-0.129-1.076-0.129-2.22-0.014zM50.151 22.38c0 0.027 0.014 0.041 0.034 0.041s0.041-0.014 0.041-0.041c0-0.020-0.020-0.041-0.041-0.041s-0.034 0.020-0.034 0.041z"></path>
<path fill="#a332ca" style="fill: var(--color2, #a332ca)" d="M5.045 2.124c-1.675 0.381-1.838 1.518-0.517 3.506 0.157 0.225 0.313 0.449 0.354 0.483 0.123 0.116 0.66 0.545 1.185 0.946 0.47 0.361 2.083 1.26 2.26 1.266 0.054 0 0.279 0.095 0.497 0.211 0.211 0.116 0.436 0.211 0.497 0.211 0.054 0 0.218 0.054 0.354 0.123 0.136 0.061 0.49 0.197 0.783 0.3 1.403 0.477 1.157 1.382-0.286 1.042-0.177-0.048-0.647-0.143-1.035-0.225-0.388-0.075-0.783-0.177-0.865-0.218-0.98-0.47-2.955-1.008-2.955-0.797 0 0.306 1.008 1.92 1.464 2.349 0.545 0.511 1.974 1.443 2.213 1.443 0.054 0 0.252 0.075 0.436 0.163 0.558 0.266 1.103 0.436 1.403 0.436 0.987 0 1.505 0.34 1.226 0.81-0.157 0.259-1.947 0.327-2.689 0.095-0.933-0.286-1.43-0.245-1.232 0.102 0.082 0.136 1.832 1.382 1.947 1.382 0.048 0 0.245 0.088 0.436 0.191 0.756 0.402 3.615 0.599 4.916 0.334 1.505-0.313 1.6-0.334 1.757-0.429 0.088-0.048 0.252-0.095 0.361-0.095 1.028 0 3.077-1.219 4.276-2.553 1.035-1.144 1.069-1.334 0.415-2.015-0.136-0.143-0.306-0.388-0.381-0.552-0.17-0.395-2.335-2.744-3.084-3.35s-2.063-1.566-2.431-1.784c-0.157-0.095-0.497-0.3-0.756-0.463-0.259-0.17-0.667-0.402-0.906-0.517-0.238-0.123-0.504-0.259-0.592-0.306-0.286-0.143-1.484-0.599-2.008-0.756-0.279-0.088-0.599-0.197-0.708-0.245s-0.388-0.143-0.626-0.211c-1.13-0.334-1.396-0.415-1.62-0.49-0.136-0.048-0.34-0.082-0.456-0.082-0.123 0-0.293-0.048-0.388-0.102-0.436-0.259-2.444-0.388-3.241-0.204zM25.096 12.065c-0.409 0.409-0.974 1.879-1.287 3.336-0.17 0.79-0.211 0.878-0.388 0.926-1.192 0.313-1.566 1.518-0.633 2.056 0.191 0.109 0.361 0.211 0.374 0.225s-0.034 0.313-0.102 0.66c-0.449 2.254-0.32 3.071 0.483 3.071 0.477 0 0.701-0.313 0.81-1.13 0.266-1.974 0.49-2.887 0.674-2.723 0.068 0.061 0.123 0.061 0.177 0 0.048-0.048 0.32-0.075 0.62-0.061l0.531 0.027 0.211 0.899c0.538 2.294 0.892 3.071 1.409 3.071 0.409 0 0.538-0.422 0.402-1.287-0.048-0.3-0.116-0.776-0.163-1.062-0.041-0.279-0.129-0.769-0.204-1.089-0.123-0.565-0.123-0.586 0.034-0.769 0.524-0.633 0.409-1.382-0.272-1.716-0.361-0.177-0.409-0.354-0.422-1.627-0.007-0.381-0.027-0.613-0.048-0.524-0.129 0.572-0.218 0.327-0.327-0.878-0.075-0.803-0.252-1.212-0.531-1.212-0.054 0-0.204-0.095-0.334-0.211-0.32-0.3-0.715-0.293-1.014 0.020zM59.139 11.976c-0.408 0.272-0.776 1.157-1.273 3.050l-0.334 1.273-0.354 0.109c-1.089 0.347-1.273 2.083-0.225 2.083 0.197 0 0.197 0.17 0 1.11-0.089 0.402-0.177 1.062-0.211 1.471l-0.048 0.742 0.238 0.259c0.62 0.674 1.198 0.245 1.396-1.014 0.361-2.288 0.463-2.717 0.633-2.567 0.068 0.068 0.116 0.068 0.15 0.007 0.061-0.109 1.117-0.123 1.178-0.014 0.027 0.041 0.17 0.599 0.32 1.246 0.511 2.213 1.185 3.227 1.648 2.499 0.197-0.293 0.054-1.682-0.354-3.418-0.089-0.381-0.082-0.409 0.157-0.722 0.429-0.565 0.245-1.355-0.381-1.62-0.32-0.136-0.395-0.436-0.395-1.491 0-0.238-0.034-0.334-0.123-0.334-0.061 0-0.116-0.034-0.116-0.082 0-1.144-0.252-2.165-0.572-2.274-0.095-0.034-0.286-0.15-0.422-0.259-0.286-0.238-0.613-0.259-0.912-0.054zM41.266 11.969c-0.034 0.034-0.054 0.368-0.054 0.749 0 1.879-0.3 3.867-0.851 5.631-0.272 0.872-0.334 0.803-0.558-0.708-0.095-0.64-0.225-1.409-0.286-1.709-0.565-2.86-0.694-3.234-1.232-3.615-0.919-0.64-1.212 0.272-0.776 2.424 0.374 1.893 0.694 4.037 0.756 5.086 0.041 0.763 0.082 0.98 0.231 1.232 0.102 0.163 0.204 0.395 0.238 0.511 0.538 2.049 3.397-1.389 4.16-4.997 0.599-2.832 0.361-4.419-0.674-4.534l-0.511-0.061-0.054 1.328c-0.082 1.9-0.293 3.186-0.776 4.718-0.252 0.803-0.613 1.532-0.701 1.43-0.054-0.054-0.034-0.191 0.075-0.415 0.783-1.668 1.654-7.768 1.014-7.067zM68.875 12.133c-0.735 0.068-2.015 0.129-2.846 0.143-0.824 0.014-1.464 0.048-1.416 0.082 0.054 0.041 0.272 0.068 0.504 0.068 0.225 0 0.429 0.048 0.463 0.102 0.041 0.075-0.238 0.082-1.13 0.041-1.859-0.088-2.111 0.354-0.98 1.682 0.266 0.313 0.654 0.422 1.709 0.477l1.021 0.048-0.007 0.3c-0.129 3.466-0.129 5.998 0 6.359 0.334 0.946 1.185 0.953 1.348 0.014 0.068-0.402 0.191-0.395 0.197 0.014 0.007 0.259 0.020 0.286 0.075 0.15 0.041-0.095 0.068-1.716 0.075-3.608 0-1.893 0.027-3.438 0.054-3.438 0.204 0 2.083-0.368 2.26-0.449 0.136-0.054 0.266-0.204 0.34-0.402 0.068-0.163 0.197-0.463 0.286-0.66 0.157-0.34 0.157-0.361 0.020-0.586-0.075-0.123-0.116-0.279-0.095-0.347 0.054-0.143-0.007-0.143-1.879 0.014zM29.76 12.289c-0.129 0.061-0.286 0.177-0.347 0.252s-0.15 0.143-0.204 0.143c-0.054 0-0.184 0.068-0.279 0.15l-0.177 0.157 0.143 0.701c0.082 0.422 0.177 0.701 0.238 0.701 0.129 0 0.157 0.088 0.511 1.58 0.163 0.701 0.409 1.743 0.538 2.301 0.286 1.198 0.272 1.076 0.129 1.076-0.163 0-0.225-0.177-0.436-1.198-0.102-0.497-0.211-0.933-0.245-0.974-0.082-0.102-0.014 0.415 0.143 1.123 0.143 0.654 0.102 0.817-0.157 0.708-1.273-0.524-1.348 1.205-0.082 1.845 0.633 0.32 0.763 0.422 0.858 0.667 0.238 0.626 0.919 0.831 1.471 0.436 0.163-0.116 0.218-0.116 0.572 0.007 4.112 1.396 5.671-1.743 2.744-5.529-2.437-3.152-4.385-4.643-5.42-4.146zM46.141 12.378c-0.347 0.136-0.722 0.49-0.892 0.844-0.061 0.129-0.191 0.272-0.286 0.306-1.069 0.443-1.546 5.236-0.708 7.163 0.98 2.267 3.561 1.893 4.357-0.633 0.599-1.893 0.054-6.768-0.79-7.101-0.068-0.027-0.245-0.197-0.402-0.374-0.32-0.368-0.694-0.429-1.28-0.204zM50.042 12.344c-0.32 0.143-0.361 0.395-0.266 1.634 0.231 2.989 0.34 4.167 0.408 4.596 0.041 0.252 0.075 1.117 0.075 1.913 0 1.825 0.027 1.852 1.26 1.552 0.926-0.232 2.383-0.388 3.377-0.374 1.232 0.020 1.45-0.15 1.157-0.885-0.068-0.15-0.136-0.374-0.157-0.497-0.095-0.504-1.505-0.688-3.037-0.388-0.769 0.15-0.708 0.347-0.878-2.567-0.082-1.403-0.197-2.9-0.259-3.323l-0.109-0.769-0.007 0.586c-0.007 0.62-0.129 0.708-0.204 0.163-0.054-0.368-0.197-1.103-0.245-1.314-0.068-0.259-0.79-0.47-1.117-0.327zM72.381 12.405c-1.253 0.538-1.471 7.244-0.245 7.666 0.088 0.034 0.306 0.279 0.477 0.545 1.607 2.58 4.255 1.723 5.038-1.641 0.497-2.138 0.347-5.93-0.259-6.414l-0.225-0.177-0.177 0.232c-0.102 0.15-0.245 0.238-0.368 0.238-0.511 0-0.545 0.15-0.552 2.288-0.007 4.344-0.429 5.494-1.682 4.603-0.259-0.184-0.715-1.92-0.831-3.132l-0.068-0.729 0.027 0.974c0.014 0.538-0.007 0.919-0.041 0.858-0.293-0.511-0.313-3.493-0.027-3.745 0.728-0.633-0.17-1.954-1.069-1.566zM79.38 12.494c-0.374 0.204-0.47 0.552-0.449 1.593 0.014 0.613-0.007 0.851-0.075 0.878-0.075 0.027-0.102-0.163-0.109-0.763-0.007-0.885-0.088-1.328-0.191-1.069-0.095 0.252 0.020 6.577 0.143 7.598 0.136 1.123 0.238 1.314 0.735 1.396 0.674 0.109 0.688 0.061 0.64-2.546-0.048-2.471-0.007-2.628 0.334-1.26 0.94 3.799 0.926 3.779 1.355 3.745l0.334-0.027 0.17-0.599c0.286-1.021 0.531-2.294 0.517-2.648-0.007-0.34 0.402-2.294 0.667-3.207 0.136-0.449 0.3-0.565 0.3-0.211 0 0.095 0.034 0.232 0.082 0.3 0.041 0.068 0.15 0.511 0.245 0.98 0.088 0.47 0.218 1.144 0.286 1.498 0.197 0.987 0.374 2.403 0.374 2.941 0 0.62 0.075 0.769 0.538 1.028 0.933 0.511 1.416-0.552 1.083-2.349-0.381-2.015-0.545-2.921-0.722-4.010-0.279-1.695-0.538-2.485-1.001-3.050-0.402-0.49-1.58-0.191-1.668 0.415-0.374 2.683-1.287 6.475-1.416 5.862-0.334-1.614-0.906-5.072-0.906-5.501 0-0.238-0.347-0.885-0.531-1.001-0.211-0.129-0.49-0.129-0.735 0.007zM50.294 12.752c-0.027 0.129-0.048 1.096-0.041 2.152 0.027 2.921-0.123 2.315-0.361-1.505-0.041-0.654-0.034-0.701 0.136-0.831 0.231-0.177 0.34-0.102 0.266 0.184zM80.313 13.603c0.041 0.082 0.116 0.415 0.17 0.742 0.054 0.334 0.163 0.953 0.245 1.389 0.225 1.164 0.075 1.375-0.184 0.259-0.504-2.172-0.599-3.18-0.231-2.39zM46.699 13.814c0.361 0.517 0.667 2.329 0.674 4.037 0.020 2.478-0.586 3.643-1.586 3.077-0.551-0.306-0.763-0.933-0.286-0.831 0.231 0.048 0.231 0.048 0.075-0.967-0.211-1.396-0.109-3.186 0.238-4.187 0.361-1.028 0.674-1.43 0.885-1.13zM64.259 14.168c0.565 0.136 0.66 0.197 0.395 0.266-0.238 0.061-0.953-0.136-0.994-0.279-0.041-0.129-0.020-0.129 0.599 0.014zM25.852 14.965c0.218 1.58 0.225 1.559-0.327 1.559-0.402 0-0.422-0.088-0.17-1.123 0.306-1.26 0.368-1.321 0.497-0.436zM59.867 15.564c0.095 0.919 0.082 0.96-0.408 0.96-0.402 0.007-0.402-0.014-0.17-1.028 0.32-1.423 0.429-1.409 0.579 0.068zM46.094 14.781c0.007 0.102 0.027 0.123 0.048 0.054 0.027-0.061 0.020-0.136-0.007-0.163-0.020-0.027-0.041 0.020-0.041 0.109zM32.041 15.448c1.716 1.3 3.949 4.323 3.615 4.895-0.3 0.517-2.213 0.47-3.445-0.088-0.334-0.15-0.306-0.068-0.599-2.002-0.136-0.865-0.306-1.934-0.395-2.39-0.204-1.069-0.109-1.117 0.824-0.415zM29.406 16.443c0 0.061 0.020 0.088 0.048 0.054 0.034-0.027 0.034-0.082 0-0.109-0.027-0.034-0.048-0.007-0.048 0.054zM24.892 19.18c-0.068 0.306-0.143 0.688-0.163 0.851-0.109 0.837-0.123 1.198-0.061 1.198 0.041 0 0.095-0.238 0.123-0.531 0.027-0.286 0.102-0.824 0.17-1.192 0.157-0.837 0.109-1.062-0.068-0.327zM58.819 19.329c-0.109 0.552-0.272 2.206-0.177 1.811 0.068-0.293 0.368-2.403 0.34-2.437-0.014-0.014-0.089 0.266-0.163 0.626zM53.215 22.203l-0.946 0.095 1.593 0.007c1.083 0 1.586-0.027 1.573-0.088-0.041-0.129-1.083-0.129-2.22-0.014zM51.758 22.38c0 0.027 0.014 0.041 0.041 0.041 0.020 0 0.034-0.014 0.034-0.041 0-0.020-0.014-0.041-0.034-0.041-0.027 0-0.041 0.020-0.041 0.041z"></path>
<path fill="#fff" style="fill: var(--color3, #fff)" d="M4.235 2.124c-1.668 0.381-1.832 1.518-0.511 3.506 0.157 0.225 0.313 0.449 0.354 0.483 0.123 0.116 0.66 0.545 1.185 0.946 0.47 0.361 2.083 1.26 2.26 1.266 0.054 0 0.279 0.095 0.49 0.211 0.218 0.116 0.443 0.211 0.504 0.211 0.054 0 0.218 0.054 0.354 0.123 0.136 0.061 0.49 0.197 0.783 0.3 1.403 0.477 1.157 1.382-0.286 1.042-0.184-0.048-0.647-0.143-1.035-0.225-0.395-0.075-0.783-0.177-0.872-0.218-0.974-0.47-2.948-1.008-2.948-0.797 0 0.306 1.008 1.92 1.464 2.349 0.545 0.511 1.974 1.443 2.206 1.443 0.061 0 0.252 0.075 0.443 0.163 0.552 0.266 1.103 0.436 1.403 0.436 0.987 0 1.505 0.34 1.226 0.81-0.163 0.259-1.947 0.327-2.689 0.095-0.933-0.286-1.43-0.245-1.232 0.102 0.082 0.136 1.832 1.382 1.947 1.382 0.048 0 0.238 0.088 0.436 0.191 0.756 0.402 3.615 0.599 4.909 0.334 1.511-0.313 1.6-0.334 1.763-0.429 0.088-0.048 0.245-0.095 0.361-0.095 1.028 0 3.077-1.219 4.276-2.553 1.035-1.144 1.069-1.334 0.415-2.015-0.136-0.143-0.306-0.388-0.381-0.552-0.17-0.395-2.335-2.744-3.084-3.35s-2.063-1.566-2.431-1.784c-0.157-0.095-0.497-0.3-0.756-0.463-0.266-0.17-0.667-0.402-0.906-0.517-0.238-0.123-0.504-0.259-0.592-0.306-0.286-0.143-1.484-0.599-2.008-0.756-0.279-0.088-0.599-0.197-0.708-0.245s-0.388-0.143-0.626-0.211c-1.13-0.334-1.396-0.415-1.62-0.49-0.136-0.048-0.34-0.082-0.456-0.082-0.123 0-0.3-0.048-0.388-0.102-0.436-0.259-2.444-0.388-3.248-0.204zM24.293 12.065c-0.409 0.409-0.974 1.879-1.287 3.336-0.17 0.79-0.211 0.878-0.388 0.926-1.192 0.313-1.566 1.518-0.633 2.056 0.191 0.109 0.354 0.211 0.374 0.225 0.014 0.014-0.034 0.313-0.102 0.66-0.449 2.254-0.32 3.071 0.483 3.071 0.477 0 0.701-0.313 0.81-1.13 0.266-1.974 0.49-2.887 0.674-2.723 0.068 0.061 0.123 0.061 0.177 0 0.041-0.048 0.32-0.075 0.62-0.061l0.531 0.027 0.211 0.899c0.538 2.294 0.892 3.071 1.409 3.071 0.402 0 0.538-0.422 0.402-1.287-0.048-0.3-0.116-0.776-0.163-1.062-0.041-0.279-0.136-0.769-0.204-1.089-0.123-0.565-0.123-0.586 0.034-0.769 0.524-0.633 0.409-1.382-0.272-1.716-0.361-0.177-0.409-0.354-0.422-1.627-0.007-0.381-0.027-0.613-0.048-0.524-0.129 0.572-0.218 0.327-0.327-0.878-0.075-0.803-0.252-1.212-0.531-1.212-0.054 0-0.204-0.095-0.334-0.211-0.32-0.3-0.715-0.293-1.014 0.020zM58.335 11.976c-0.408 0.272-0.776 1.157-1.273 3.050l-0.334 1.273-0.354 0.109c-1.089 0.347-1.28 2.083-0.225 2.083 0.197 0 0.197 0.17-0.007 1.11-0.082 0.402-0.177 1.062-0.204 1.471l-0.048 0.742 0.238 0.259c0.62 0.674 1.198 0.245 1.396-1.014 0.354-2.288 0.463-2.717 0.626-2.567 0.075 0.068 0.123 0.068 0.157 0.007 0.061-0.109 1.117-0.123 1.178-0.014 0.027 0.041 0.17 0.599 0.32 1.246 0.511 2.213 1.185 3.227 1.648 2.499 0.197-0.293 0.054-1.682-0.354-3.418-0.089-0.381-0.082-0.409 0.157-0.722 0.429-0.565 0.245-1.355-0.381-1.62-0.32-0.136-0.402-0.436-0.402-1.491 0-0.238-0.027-0.334-0.116-0.334-0.061 0-0.116-0.034-0.116-0.082 0-1.144-0.259-2.165-0.572-2.274-0.095-0.034-0.286-0.15-0.422-0.259-0.286-0.238-0.613-0.259-0.912-0.054zM40.456 11.969c-0.027 0.034-0.048 0.368-0.048 0.749 0 1.879-0.306 3.867-0.851 5.631-0.272 0.872-0.334 0.803-0.558-0.708-0.095-0.64-0.225-1.409-0.286-1.709-0.565-2.86-0.694-3.234-1.232-3.615-0.919-0.64-1.212 0.272-0.776 2.424 0.374 1.893 0.694 4.037 0.756 5.086 0.041 0.763 0.082 0.98 0.231 1.232 0.095 0.163 0.204 0.395 0.238 0.511 0.538 2.049 3.397-1.389 4.16-4.997 0.599-2.832 0.361-4.419-0.674-4.534l-0.511-0.061-0.054 1.328c-0.082 1.9-0.293 3.186-0.776 4.718-0.252 0.803-0.613 1.532-0.708 1.43-0.048-0.054-0.027-0.191 0.082-0.415 0.783-1.668 1.654-7.768 1.008-7.067zM68.071 12.133c-0.735 0.068-2.015 0.129-2.846 0.143s-1.464 0.048-1.416 0.082c0.048 0.041 0.272 0.068 0.497 0.068s0.436 0.048 0.47 0.102c0.041 0.075-0.238 0.082-1.13 0.041-1.859-0.088-2.111 0.354-0.98 1.682 0.266 0.313 0.654 0.422 1.709 0.477l1.021 0.048-0.014 0.3c-0.123 3.466-0.123 5.998 0.007 6.359 0.334 0.946 1.185 0.953 1.348 0.014 0.068-0.402 0.191-0.395 0.197 0.014 0.007 0.259 0.020 0.286 0.075 0.15 0.034-0.095 0.068-1.716 0.075-3.608 0-1.893 0.027-3.438 0.054-3.438 0.204 0 2.083-0.368 2.26-0.449 0.136-0.054 0.266-0.204 0.34-0.402 0.068-0.163 0.197-0.463 0.286-0.66 0.157-0.34 0.157-0.361 0.020-0.586-0.075-0.123-0.116-0.279-0.095-0.347 0.054-0.143-0.007-0.143-1.879 0.014zM28.95 12.289c-0.129 0.061-0.279 0.177-0.34 0.252s-0.157 0.143-0.211 0.143c-0.054 0-0.177 0.068-0.272 0.15l-0.177 0.157 0.143 0.701c0.082 0.422 0.177 0.701 0.232 0.701 0.136 0 0.163 0.088 0.511 1.58 0.17 0.701 0.415 1.743 0.545 2.301 0.286 1.198 0.272 1.076 0.129 1.076-0.163 0-0.225-0.177-0.436-1.198-0.102-0.497-0.211-0.933-0.245-0.974-0.082-0.102-0.014 0.415 0.143 1.123 0.143 0.654 0.102 0.817-0.157 0.708-1.273-0.524-1.355 1.205-0.082 1.845 0.633 0.32 0.763 0.422 0.851 0.667 0.245 0.626 0.926 0.831 1.477 0.436 0.163-0.116 0.218-0.116 0.572 0.007 4.112 1.396 5.671-1.743 2.744-5.529-2.437-3.152-4.385-4.643-5.426-4.146zM45.338 12.378c-0.347 0.136-0.722 0.49-0.892 0.844-0.061 0.129-0.191 0.272-0.286 0.306-1.076 0.443-1.546 5.236-0.708 7.163 0.98 2.267 3.554 1.893 4.357-0.633 0.599-1.893 0.054-6.768-0.79-7.101-0.068-0.027-0.245-0.197-0.402-0.374-0.32-0.368-0.694-0.429-1.28-0.204zM49.239 12.344c-0.32 0.143-0.361 0.395-0.266 1.634 0.231 2.989 0.334 4.167 0.408 4.596 0.041 0.252 0.075 1.117 0.075 1.913 0 1.825 0.020 1.852 1.26 1.552 0.926-0.232 2.383-0.388 3.377-0.374 1.232 0.020 1.45-0.15 1.151-0.885-0.061-0.15-0.129-0.374-0.15-0.497-0.095-0.504-1.505-0.688-3.037-0.388-0.776 0.15-0.708 0.347-0.878-2.567-0.082-1.403-0.204-2.9-0.259-3.323l-0.109-0.769-0.007 0.586c-0.014 0.62-0.129 0.708-0.211 0.163-0.054-0.368-0.191-1.103-0.245-1.314-0.061-0.259-0.783-0.47-1.11-0.327zM71.578 12.405c-1.253 0.538-1.471 7.244-0.245 7.666 0.088 0.034 0.306 0.279 0.47 0.545 1.614 2.58 4.262 1.723 5.045-1.641 0.497-2.138 0.347-5.93-0.259-6.414l-0.225-0.177-0.177 0.232c-0.102 0.15-0.245 0.238-0.368 0.238-0.511 0-0.545 0.15-0.552 2.288-0.007 4.344-0.429 5.494-1.682 4.603-0.259-0.184-0.715-1.92-0.831-3.132l-0.068-0.729 0.027 0.974c0.014 0.538-0.007 0.919-0.041 0.858-0.293-0.511-0.313-3.493-0.027-3.745 0.722-0.633-0.17-1.954-1.069-1.566zM78.577 12.494c-0.374 0.204-0.477 0.552-0.449 1.593 0.014 0.613-0.007 0.851-0.082 0.878-0.068 0.027-0.095-0.163-0.102-0.763-0.007-0.885-0.088-1.328-0.191-1.069-0.095 0.252 0.020 6.577 0.143 7.598 0.136 1.123 0.238 1.314 0.735 1.396 0.674 0.109 0.688 0.061 0.64-2.546-0.048-2.471-0.007-2.628 0.334-1.26 0.933 3.799 0.926 3.779 1.355 3.745l0.334-0.027 0.17-0.599c0.286-1.021 0.531-2.294 0.517-2.648-0.007-0.34 0.395-2.294 0.667-3.207 0.136-0.449 0.3-0.565 0.3-0.211 0 0.095 0.034 0.232 0.075 0.3 0.048 0.068 0.157 0.511 0.245 0.98 0.095 0.47 0.225 1.144 0.293 1.498 0.191 0.987 0.374 2.403 0.374 2.941 0 0.62 0.075 0.769 0.538 1.028 0.933 0.511 1.416-0.552 1.083-2.349-0.381-2.015-0.545-2.921-0.722-4.010-0.279-1.695-0.538-2.485-1.001-3.050-0.402-0.49-1.586-0.191-1.668 0.415-0.374 2.683-1.287 6.475-1.416 5.862-0.34-1.614-0.906-5.072-0.912-5.501 0-0.238-0.34-0.885-0.524-1.001-0.211-0.129-0.49-0.129-0.735 0.007zM49.491 12.752c-0.034 0.129-0.048 1.096-0.041 2.152 0.020 2.921-0.123 2.315-0.361-1.505-0.041-0.654-0.034-0.701 0.136-0.831 0.231-0.177 0.34-0.102 0.266 0.184zM79.51 13.603c0.041 0.082 0.116 0.415 0.17 0.742 0.048 0.334 0.163 0.953 0.245 1.389 0.225 1.164 0.075 1.375-0.184 0.259-0.504-2.172-0.606-3.18-0.231-2.39zM45.889 13.814c0.368 0.517 0.674 2.329 0.681 4.037 0.014 2.478-0.586 3.643-1.593 3.077-0.545-0.306-0.756-0.933-0.279-0.831 0.231 0.048 0.231 0.048 0.075-0.967-0.211-1.396-0.109-3.186 0.238-4.187 0.361-1.028 0.667-1.43 0.878-1.13zM63.455 14.168c0.565 0.136 0.66 0.197 0.395 0.266-0.238 0.061-0.953-0.136-0.994-0.279-0.041-0.129-0.027-0.129 0.599 0.014zM25.048 14.965c0.218 1.58 0.225 1.559-0.327 1.559-0.409 0-0.422-0.088-0.17-1.123 0.3-1.26 0.368-1.321 0.497-0.436zM59.064 15.564c0.095 0.919 0.082 0.96-0.415 0.96-0.395 0.007-0.395-0.014-0.17-1.028 0.327-1.423 0.436-1.409 0.586 0.068zM45.29 14.781c0.007 0.102 0.027 0.123 0.048 0.054 0.027-0.061 0.020-0.136-0.007-0.163s-0.041 0.020-0.041 0.109zM31.231 15.448c1.716 1.3 3.949 4.323 3.622 4.895-0.3 0.517-2.22 0.47-3.445-0.088-0.334-0.15-0.306-0.068-0.599-2.002-0.136-0.865-0.313-1.934-0.395-2.39-0.204-1.069-0.109-1.117 0.817-0.415zM28.596 16.443c0 0.061 0.027 0.088 0.054 0.054 0.027-0.027 0.027-0.082 0-0.109-0.027-0.034-0.054-0.007-0.054 0.054zM24.088 19.18c-0.068 0.306-0.15 0.688-0.17 0.851-0.102 0.837-0.123 1.198-0.054 1.198 0.034 0 0.088-0.238 0.123-0.531 0.027-0.286 0.102-0.824 0.17-1.192 0.157-0.837 0.109-1.062-0.068-0.327zM58.015 19.329c-0.109 0.552-0.279 2.206-0.177 1.811 0.068-0.293 0.368-2.403 0.34-2.437-0.014-0.014-0.089 0.266-0.163 0.626zM52.412 22.203l-0.946 0.095 1.593 0.007c1.083 0 1.586-0.027 1.566-0.088-0.034-0.129-1.076-0.129-2.213-0.014zM50.955 22.38c0 0.027 0.014 0.041 0.034 0.041 0.027 0 0.041-0.014 0.041-0.041 0-0.020-0.014-0.041-0.041-0.041-0.020 0-0.034 0.020-0.034 0.041z"></path>
</symbol>
</defs>
</svg>
