<svg width="195.243652" height="45.000000" viewBox="0 0 195.244 45" fill="none" xmlns="http://www.w3.org/2000/svg" xmlns:xlink="http://www.w3.org/1999/xlink">
	<desc>
			Created with Pixso.
	</desc>
	<defs/>
	<path id="Лого" d="M3.28 0.19C-0.66 1.03 -1.05 3.53 2.08 7.91C2.43 8.41 2.81 8.89 2.91 8.98C3.2 9.23 4.46 10.17 5.7 11.06C6.81 11.85 10.6 13.84 11.03 13.85C11.16 13.85 11.68 14.06 12.19 14.32C12.7 14.57 13.23 14.78 13.37 14.78C13.51 14.78 13.88 14.9 14.2 15.04C14.52 15.19 15.36 15.48 16.05 15.7C19.36 16.76 18.78 18.76 15.38 18C14.95 17.9 13.85 17.68 12.93 17.51C12.01 17.34 11.1 17.12 10.89 17.03C8.59 15.99 3.93 14.81 3.93 15.27C3.93 15.94 6.3 19.5 7.39 20.45C8.66 21.57 12.04 23.63 12.59 23.63C12.72 23.63 13.19 23.79 13.62 23.99C14.93 24.57 16.23 24.95 16.94 24.95C19.26 24.95 20.48 25.7 19.82 26.73C19.45 27.31 15.24 27.45 13.48 26.94C11.28 26.31 10.11 26.4 10.58 27.17C10.77 27.47 14.9 30.21 15.17 30.22C15.28 30.22 15.74 30.41 16.19 30.63C17.97 31.52 24.72 31.95 27.78 31.36C31.33 30.68 31.55 30.63 31.93 30.42C32.13 30.31 32.51 30.22 32.77 30.22C35.2 30.22 40.04 27.52 42.86 24.59C45.29 22.06 45.38 21.64 43.83 20.15C43.51 19.84 43.11 19.29 42.94 18.93C42.53 18.06 37.43 12.89 35.66 11.55C33.89 10.22 30.81 8.1 29.93 7.62C29.56 7.42 28.76 6.96 28.15 6.6C27.54 6.23 26.58 5.72 26.01 5.46C25.45 5.19 24.83 4.89 24.62 4.79C23.95 4.47 21.12 3.47 19.89 3.12C19.23 2.93 18.48 2.69 18.22 2.58C17.97 2.48 17.3 2.27 16.74 2.11C14.08 1.38 13.45 1.2 12.92 1.04C12.61 0.94 12.12 0.85 11.84 0.85C11.56 0.85 11.15 0.75 10.93 0.63C9.9 0.06 5.17 -0.22 3.28 0.19ZM50.56 22.08C49.6 22.98 48.27 26.22 47.53 29.43C47.13 31.17 47.04 31.37 46.62 31.48C43.8 32.16 42.92 34.82 45.11 36C45.57 36.24 45.96 36.46 46 36.5C46.03 36.54 45.93 37.19 45.76 37.96C44.7 42.92 45 44.71 46.9 44.71C48.03 44.71 48.55 44.03 48.81 42.23C49.44 37.88 49.97 35.87 50.4 36.23C50.55 36.36 50.69 36.36 50.82 36.23C50.92 36.12 51.58 36.06 52.27 36.09L53.54 36.15L54.03 38.13C55.29 43.19 56.13 44.9 57.35 44.9C58.31 44.9 58.62 43.96 58.3 42.06C58.19 41.4 58.02 40.35 57.92 39.73C57.82 39.1 57.6 38.02 57.44 37.32C57.14 36.08 57.15 36.03 57.51 35.63C58.75 34.24 58.47 32.58 56.87 31.84C56.01 31.45 55.91 31.07 55.87 28.26C55.86 27.42 55.81 26.91 55.76 27.11C55.46 28.36 55.25 27.83 54.99 25.17C54.82 23.41 54.4 22.5 53.74 22.5C53.61 22.5 53.26 22.29 52.95 22.03C52.19 21.38 51.27 21.4 50.56 22.08ZM130.81 21.89C129.86 22.49 128.98 24.44 127.82 28.6L127.03 31.41L126.2 31.66C123.63 32.42 123.19 36.24 125.67 36.24C126.13 36.24 126.13 36.62 125.66 38.69C125.46 39.57 125.24 41.03 125.17 41.92L125.05 43.56L125.62 44.14C127.07 45.61 128.44 44.68 128.91 41.89C129.75 36.85 130 35.91 130.39 36.24C130.56 36.39 130.67 36.39 130.76 36.25C130.91 36.01 133.39 35.99 133.54 36.22C133.59 36.32 133.93 37.55 134.28 38.97C135.49 43.84 137.07 46.08 138.18 44.48C138.63 43.83 138.29 40.77 137.34 36.94C137.13 36.1 137.14 36.05 137.7 35.36C138.72 34.11 138.28 32.37 136.81 31.78C136.06 31.48 135.87 30.82 135.87 28.5C135.87 27.98 135.79 27.77 135.59 27.77C135.44 27.77 135.31 27.69 135.31 27.59C135.31 25.06 134.71 22.82 133.97 22.58C133.74 22.51 133.29 22.25 132.97 22C132.3 21.48 131.52 21.44 130.81 21.89ZM88.68 21.87C88.61 21.94 88.55 22.68 88.55 23.52C88.55 27.66 87.84 32.04 86.54 35.92C85.9 37.85 85.77 37.7 85.23 34.36C85 32.96 84.7 31.27 84.56 30.6C83.22 24.3 82.92 23.47 81.65 22.64C79.49 21.22 78.8 23.23 79.82 27.97C80.71 32.14 81.47 36.88 81.6 39.18C81.7 40.87 81.8 41.35 82.15 41.89C82.38 42.25 82.63 42.76 82.71 43.02C83.98 47.54 90.73 39.96 92.52 32.01C93.93 25.77 93.37 22.27 90.94 22.02L89.72 21.89L89.59 24.82C89.41 29 88.91 31.83 87.77 35.21C87.17 36.97 86.32 38.58 86.11 38.36C85.98 38.23 86.04 37.93 86.29 37.44C88.13 33.77 90.19 20.33 88.68 21.87ZM153.77 22.24C152.04 22.38 149.02 22.52 147.07 22.54C145.11 22.57 143.61 22.66 143.73 22.73C143.84 22.81 144.37 22.87 144.9 22.88C145.43 22.88 145.92 22.98 146 23.1C146.1 23.26 145.44 23.29 143.34 23.19C138.96 23 138.36 23.97 141.02 26.9C141.65 27.59 142.57 27.83 145.05 27.94L147.46 28.05L147.44 28.71C147.14 36.35 147.15 41.93 147.45 42.72C148.23 44.8 150.25 44.82 150.63 42.76C150.79 41.87 151.08 41.89 151.1 42.78C151.11 43.35 151.14 43.42 151.27 43.11C151.36 42.91 151.43 39.33 151.44 35.16C151.45 30.99 151.51 27.58 151.57 27.58C152.06 27.58 156.48 26.77 156.9 26.6C157.23 26.47 157.53 26.14 157.71 25.72C157.86 25.35 158.16 24.69 158.37 24.26C158.74 23.51 158.74 23.46 158.43 22.97C158.25 22.7 158.15 22.35 158.21 22.2C158.33 21.88 158.18 21.89 153.77 22.24ZM61.55 22.57C61.24 22.71 60.88 22.96 60.74 23.13C60.6 23.3 60.38 23.44 60.25 23.44C60.12 23.44 59.83 23.6 59.6 23.78L59.18 24.12L59.51 25.67C59.71 26.6 59.93 27.21 60.07 27.21C60.38 27.21 60.45 27.4 61.27 30.69C61.67 32.24 62.24 34.53 62.56 35.76C63.23 38.4 63.19 38.13 62.85 38.13C62.47 38.13 62.33 37.74 61.83 35.49C61.59 34.4 61.33 33.44 61.25 33.34C61.06 33.13 61.22 34.27 61.58 35.83C61.92 37.26 61.83 37.63 61.22 37.39C58.22 36.23 58.03 40.03 61.02 41.45C62.51 42.16 62.82 42.38 63.04 42.92C63.61 44.29 65.22 44.74 66.51 43.88C66.9 43.63 67.04 43.63 67.86 43.89C77.56 46.97 81.24 40.05 74.34 31.71C68.59 24.77 64 21.49 61.55 22.57ZM100.17 22.78C99.36 23.07 98.48 23.85 98.08 24.63C97.93 24.92 97.62 25.23 97.39 25.31C94.87 26.29 93.76 36.84 95.73 41.09C98.04 46.08 104.12 45.25 106 39.69C107.42 35.53 106.14 24.78 104.14 24.05C103.99 23.99 103.56 23.62 103.19 23.22C102.44 22.41 101.55 22.28 100.17 22.78ZM109.38 22.7C108.62 23.01 108.52 23.56 108.75 26.3C109.3 32.88 109.54 35.48 109.71 36.42C109.81 36.98 109.89 38.88 109.89 40.63C109.89 44.66 109.94 44.72 112.86 44.05C115.05 43.55 118.48 43.2 120.82 43.23C123.72 43.28 124.24 42.91 123.54 41.29C123.39 40.95 123.23 40.45 123.18 40.19C122.95 39.07 119.63 38.68 116.01 39.34C114.2 39.67 114.35 40.09 113.95 33.67C113.75 30.58 113.48 27.29 113.34 26.36L113.08 24.67L113.06 25.95C113.04 27.32 112.77 27.52 112.58 26.31C112.45 25.51 112.12 23.88 112 23.41C111.85 22.85 110.14 22.38 109.38 22.7ZM162.04 22.83C159.08 24.01 158.57 38.79 161.46 39.72C161.67 39.79 162.18 40.33 162.57 40.93C166.38 46.61 172.61 44.71 174.46 37.31C175.64 32.6 175.27 24.25 173.84 23.18L173.32 22.78L172.91 23.3C172.66 23.62 172.32 23.82 172.03 23.82C170.84 23.82 170.75 24.15 170.74 28.86C170.72 38.43 169.73 40.96 166.77 39C166.17 38.6 165.08 34.78 164.81 32.1L164.65 30.5L164.71 32.64C164.75 33.83 164.7 34.67 164.62 34.53C163.93 33.4 163.88 26.84 164.55 26.29C166.27 24.88 164.16 21.98 162.04 22.83ZM178.54 23.02C177.65 23.47 177.42 24.24 177.48 26.53C177.51 27.89 177.46 28.42 177.29 28.48C177.12 28.54 177.06 28.12 177.04 26.8C177.02 24.84 176.84 23.87 176.6 24.44C176.37 24.99 176.65 38.92 176.93 41.17C177.25 43.65 177.49 44.08 178.67 44.26C180.25 44.5 180.28 44.39 180.17 38.64C180.06 33.19 180.16 32.85 180.96 35.87C183.17 44.24 183.15 44.19 184.16 44.11L184.95 44.06L185.34 42.74C186.01 40.49 186.6 37.69 186.57 36.9C186.54 36.16 187.5 31.84 188.14 29.84C188.46 28.85 188.85 28.59 188.85 29.37C188.85 29.58 188.93 29.88 189.03 30.03C189.13 30.19 189.39 31.16 189.61 32.2C189.82 33.23 190.13 34.71 190.29 35.49C190.74 37.67 191.16 40.79 191.16 41.97C191.16 43.34 191.35 43.67 192.44 44.23C194.63 45.36 195.78 43.02 194.99 39.07C194.09 34.62 193.71 32.63 193.29 30.23C192.64 26.49 192.02 24.75 190.93 23.51C189.99 22.43 187.2 23.08 187 24.42C186.12 30.33 183.96 38.68 183.66 37.34C182.86 33.78 181.52 26.16 181.52 25.21C181.52 24.69 180.71 23.27 180.28 23.02C179.78 22.73 179.11 22.73 178.54 23.02ZM109.97 23.6C109.89 23.88 109.85 26.01 109.87 28.34C109.93 34.78 109.58 33.44 109.02 25.02C108.92 23.59 108.94 23.48 109.34 23.2C109.88 22.81 110.14 22.97 109.97 23.6ZM180.74 25.47C180.83 25.65 181.01 26.39 181.13 27.11C181.26 27.84 181.52 29.21 181.72 30.17C182.24 32.73 181.89 33.19 181.28 30.74C180.09 25.95 179.86 23.74 180.74 25.47ZM101.49 25.94C102.35 27.07 103.06 31.06 103.09 34.83C103.12 40.3 101.7 42.86 99.33 41.62C98.04 40.94 97.54 39.56 98.67 39.78C99.21 39.88 99.21 39.89 98.85 37.66C98.35 34.57 98.59 30.63 99.41 28.43C100.26 26.16 100.99 25.28 101.49 25.94ZM142.88 26.72C144.23 27.02 144.44 27.15 143.82 27.3C143.26 27.43 141.58 27 141.48 26.69C141.39 26.4 141.42 26.4 142.88 26.72ZM52.34 28.48C52.86 31.95 52.87 31.91 51.57 31.91C50.62 31.91 50.58 31.71 51.17 29.44C51.88 26.66 52.04 26.53 52.34 28.48ZM132.54 29.8C132.76 31.82 132.73 31.91 131.56 31.91C130.63 31.91 130.62 31.87 131.16 29.64C131.92 26.51 132.18 26.54 132.54 29.8ZM100.07 28.07C100.08 28.29 100.12 28.33 100.18 28.18C100.23 28.05 100.23 27.89 100.17 27.82C100.1 27.76 100.06 27.87 100.07 28.07ZM66.92 29.54C70.97 32.41 76.23 39.06 75.45 40.32C74.75 41.46 70.23 41.36 67.34 40.13C66.55 39.8 66.61 39.98 65.92 35.71C65.61 33.82 65.19 31.45 64.99 30.46C64.52 28.1 64.74 27.99 66.92 29.54ZM60.71 31.73C60.71 31.86 60.77 31.92 60.84 31.85C60.91 31.78 60.91 31.67 60.84 31.6C60.77 31.53 60.71 31.59 60.71 31.73ZM50.09 37.76C49.91 38.43 49.74 39.27 49.69 39.63C49.44 41.48 49.4 42.27 49.55 42.27C49.64 42.27 49.77 41.75 49.83 41.11C49.9 40.47 50.08 39.29 50.25 38.48C50.61 36.64 50.5 36.14 50.09 37.76ZM130.07 38.09C129.8 39.3 129.41 42.95 129.64 42.08C129.81 41.44 130.52 36.78 130.45 36.71C130.42 36.67 130.24 37.29 130.07 38.09ZM116.85 44.42L114.62 44.63L118.38 44.64C120.93 44.64 122.12 44.58 122.08 44.44C121.99 44.17 119.53 44.16 116.85 44.42ZM113.41 44.81C113.41 44.86 113.46 44.9 113.51 44.9C113.56 44.9 113.6 44.86 113.6 44.81C113.6 44.76 113.56 44.71 113.51 44.71C113.46 44.71 113.41 44.76 113.41 44.81Z" fill="#FFFFFF" fill-opacity="1.000000" fill-rule="evenodd"/>
</svg>
