<svg xmlns="http://www.w3.org/2000/svg" width="219" height="67" fill="none" viewBox="0 0 219 67"><g filter="url(#a)"><path fill="#fff" fill-rule="evenodd" d="M8.468 3.213c-4.159.934-4.57 3.705-1.272 8.567.377.556.773 1.092.88 1.191.3.278 1.634 1.323 2.937 2.304 1.175.885 5.176 3.087 5.63 3.1.133.003.682.237 1.22.52.538.282 1.098.514 1.243.515.145.002.541.132.88.29.34.16 1.216.49 1.948.734 3.494 1.167 2.879 3.388-.706 2.546a99.112 99.112 0 0 0-2.582-.54c-.969-.19-1.938-.43-2.153-.533-2.43-1.153-7.34-2.464-7.34-1.96 0 .754 2.502 4.702 3.647 5.756 1.342 1.236 4.906 3.528 5.486 3.528.138 0 .628.177 1.089.394 1.383.652 2.753 1.07 3.495 1.07 2.447-.004 3.74.836 3.041 1.975-.394.641-4.834.8-6.691.239-2.32-.701-3.555-.602-3.05.246.198.335 4.553 3.383 4.837 3.386.114 0 .599.208 1.076.46 1.881.99 9 1.462 12.221.809 3.747-.76 3.978-.815 4.378-1.043.216-.123.616-.224.89-.224 2.566 0 7.665-2.995 10.643-6.25 2.562-2.8 2.66-3.269 1.024-4.927-.34-.344-.764-.956-.942-1.358-.427-.964-5.808-6.701-7.674-8.183-1.866-1.48-5.123-3.83-6.044-4.36a84.577 84.577 0 0 1-1.883-1.139 33.05 33.05 0 0 0-2.251-1.265c-.592-.295-1.253-.625-1.468-.734-.706-.358-3.692-1.471-4.991-1.86-.7-.21-1.493-.477-1.762-.593-.269-.117-.973-.352-1.566-.523-2.803-.81-3.467-1.008-4.026-1.196a4.327 4.327 0 0 0-1.138-.202c-.296 0-.73-.113-.965-.25-1.084-.635-6.068-.938-8.06-.49ZM58.331 27.51c-1.004 1.001-2.412 4.597-3.192 8.153-.426 1.94-.52 2.162-.965 2.276-2.966.757-3.9 3.714-1.583 5.016.476.267.896.518.933.558.036.039-.075.766-.248 1.616-1.12 5.51-.802 7.5 1.2 7.5 1.187 0 1.74-.755 2.015-2.754.666-4.836 1.224-7.061 1.671-6.665.168.148.31.15.446.003.11-.118.8-.186 1.534-.152l1.332.063.521 2.193c1.335 5.62 2.22 7.521 3.504 7.521 1.007 0 1.34-1.044 1.004-3.154-.117-.736-.3-1.902-.406-2.591a50.004 50.004 0 0 0-.51-2.67c-.307-1.376-.304-1.431.08-1.88 1.31-1.539 1.013-3.385-.678-4.199-.901-.433-1.013-.854-1.055-3.972-.012-.931-.065-1.506-.116-1.276-.313 1.388-.538.79-.81-2.154-.18-1.961-.628-2.964-1.321-2.964-.134 0-.506-.235-.826-.523-.803-.721-1.773-.7-2.53.055Zm84.656-.213c-1.011.67-1.931 2.836-3.164 7.453l-.832 3.116-.873.272c-2.71.843-3.177 5.09-.56 5.09.49 0 .488.413-.01 2.716a30.985 30.985 0 0 0-.513 3.59l-.128 1.813.6.641c1.534 1.637 2.972.602 3.466-2.492.891-5.593 1.152-6.637 1.569-6.268.179.159.298.162.385.01.155-.267 2.777-.294 2.93-.03.06.103.413 1.474.784 3.046 1.276 5.408 2.946 7.894 4.11 6.12.479-.73.122-4.125-.879-8.37-.221-.934-.208-.994.38-1.755 1.07-1.385.612-3.32-.941-3.972-.795-.333-.995-1.066-.995-3.645 0-.576-.084-.805-.294-.805-.161 0-.293-.09-.293-.2 0-2.805-.634-5.296-1.414-5.56-.245-.082-.718-.371-1.051-.642-.71-.576-1.53-.622-2.277-.128Zm-44.448-.019c-.074.079-.134.902-.134 1.831 0 4.596-.747 9.46-2.114 13.764-.68 2.143-.82 1.969-1.387-1.734-.238-1.551-.556-3.431-.707-4.178-1.413-6.985-1.733-7.907-3.064-8.827-2.281-1.576-3.012.655-1.938 5.915.945 4.626 1.74 9.881 1.885 12.44.105 1.872.207 2.405.575 3.007.246.402.51.966.588 1.253 1.342 5.011 8.461-3.392 10.353-12.221 1.484-6.927.899-10.807-1.673-11.088l-1.282-.14-.136 3.249c-.194 4.645-.717 7.78-1.923 11.53-.63 1.958-1.524 3.742-1.752 3.498-.132-.14-.07-.477.189-1.018 1.947-4.079 4.121-18.99 2.52-17.28Zm68.664.409c-1.83.155-5.014.307-7.075.338-2.062.031-3.647.126-3.523.21.124.085.682.155 1.241.157.559.002 1.079.113 1.157.246.106.183-.588.21-2.804.107-4.62-.213-5.257.857-2.447 4.116.66.765 1.636 1.03 4.252 1.157l2.545.123-.027.73c-.31 8.472-.306 14.664.011 15.549.825 2.306 2.949 2.33 3.352.039.173-.987.477-.969.494.029.011.628.047.7.182.365.093-.23.175-4.201.182-8.826.008-4.625.07-8.409.139-8.409.512 0 5.176-.903 5.618-1.087.347-.145.668-.515.854-.983.163-.412.479-1.14.701-1.618.389-.835.391-.89.061-1.427-.188-.308-.295-.692-.236-.856.128-.355-.031-.353-4.677.04Zm-97.276.371c-.323.15-.708.429-.856.619-.148.19-.38.345-.517.345-.136 0-.444.17-.685.378l-.438.379.347 1.71c.208 1.031.443 1.711.59 1.711.326 0 .397.218 1.27 3.865.411 1.724 1.02 4.256 1.35 5.628.707 2.928.67 2.624.316 2.624-.402 0-.559-.423-1.083-2.925-.253-1.206-.53-2.279-.615-2.384-.192-.238-.028 1.029.358 2.758.353 1.585.263 1.996-.383 1.734-3.167-1.285-3.364 2.932-.21 4.505 1.574.785 1.896 1.031 2.13 1.628.598 1.528 2.296 2.026 3.658 1.073.407-.285.555-.284 1.428.008 10.23 3.423 14.11-4.26 6.827-13.518-6.059-7.702-10.9-11.341-13.487-10.138Zm40.738.226c-.856.325-1.784 1.189-2.207 2.053-.157.32-.482.663-.723.761-2.661 1.08-3.837 12.795-1.758 17.514 2.44 5.538 8.85 4.615 10.84-1.562 1.489-4.617.139-16.544-1.964-17.356-.165-.063-.617-.476-1.004-.916-.794-.902-1.729-1.048-3.184-.494Zm9.709-.09c-.799.342-.901.962-.661 4 .576 7.305.836 10.185 1.011 11.23.104.623.19 2.729.19 4.677 0 4.465.059 4.537 3.132 3.794 2.308-.557 5.932-.95 8.399-.91 3.057.05 3.605-.364 2.867-2.161a7.945 7.945 0 0 1-.384-1.21c-.241-1.245-3.738-1.686-7.555-.954-1.914.367-1.749.843-2.179-6.285-.207-3.429-.497-7.08-.643-8.115l-.267-1.88-.021 1.423c-.023 1.517-.312 1.74-.515.398-.135-.89-.477-2.699-.609-3.214-.159-.624-1.958-1.14-2.765-.793Zm55.551.144c-3.127 1.316-3.664 17.716-.614 18.75.226.076.755.68 1.176 1.341 4.009 6.302 10.584 4.197 12.534-4.012 1.242-5.227.859-14.5-.647-15.688l-.555-.438-.431.575c-.265.353-.621.574-.925.574-1.261 0-1.349.363-1.36 5.596-.023 10.624-1.067 13.43-4.187 11.248-.638-.446-1.783-4.682-2.067-7.652l-.171-1.776.063 2.377c.035 1.322-.009 2.25-.1 2.094-.724-1.25-.777-8.532-.066-9.145 1.806-1.561-.416-4.784-2.65-3.844Zm17.398.22c-.932.497-1.175 1.345-1.115 3.893.035 1.508-.018 2.094-.196 2.158-.183.066-.25-.4-.264-1.861-.022-2.179-.214-3.256-.467-2.62-.243.61.05 16.075.352 18.572.332 2.748.586 3.224 1.829 3.423 1.67.267 1.702.141 1.584-6.24-.112-6.04-.008-6.422.834-3.065 2.328 9.28 2.309 9.227 3.375 9.144l.831-.064.414-1.462c.707-2.499 1.329-5.603 1.297-6.477-.031-.826.983-5.613 1.658-7.834.336-1.105.741-1.39.741-.522 0 .23.087.559.194.731.106.172.38 1.253.608 2.402l.724 3.657c.478 2.417.921 5.88.921 7.195 0 1.521.194 1.883 1.349 2.507 2.308 1.249 3.522-1.346 2.683-5.733-.944-4.937-1.347-7.145-1.79-9.805-.689-4.148-1.335-6.086-2.486-7.463-.998-1.193-3.941-.473-4.152 1.017-.928 6.553-3.206 15.824-3.522 14.333-.838-3.947-2.259-12.41-2.26-13.458 0-.577-.851-2.16-1.308-2.436-.525-.317-1.23-.314-1.834.008Zm-72.324.644c-.079.303-.125 2.667-.104 5.252.06 7.146-.303 5.666-.903-3.677-.102-1.594-.082-1.712.341-2.028.576-.431.847-.248.666.453Zm74.65 2.066c.097.201.283 1.024.414 1.828s.407 2.33.613 3.391c.554 2.844.182 3.353-.462.63-1.255-5.308-1.492-7.768-.565-5.849Zm-83.599.522c.908 1.262 1.665 5.687 1.69 9.871.036 6.067-1.46 8.913-3.96 7.533-1.365-.753-1.887-2.288-.695-2.045.569.116.568.127.186-2.354-.527-3.419-.274-7.797.591-10.237.895-2.525 1.664-3.497 2.188-2.768Zm43.665.872c1.418.325 1.644.47.991.636-.595.15-2.366-.33-2.471-.672-.098-.318-.062-.317 1.48.036ZM60.21 34.61c.555 3.848.565 3.803-.81 3.809-1.005.004-1.04-.22-.422-2.745.755-3.085.92-3.228 1.232-1.064Zm84.598 1.463c.235 2.247.194 2.34-1.031 2.346-.983.004-.992-.044-.423-2.52.798-3.471 1.077-3.438 1.454.174Zm-34.252-1.916c.009.243.056.293.118.126.057-.15.049-.33-.015-.4-.065-.07-.112.054-.103.274Zm-34.96 1.63c4.268 3.182 9.82 10.568 8.997 11.967-.745 1.266-5.508 1.148-8.559-.213-.829-.37-.768-.17-1.5-4.903-.326-2.105-.765-4.73-.976-5.832-.501-2.62-.264-2.738 2.039-1.02Zm-6.55 2.426c0 .153.059.216.13.14a.207.207 0 0 0 0-.28c-.071-.075-.13-.013-.13.14Zm-11.211 6.703c-.18.737-.369 1.67-.42 2.072-.261 2.05-.305 2.924-.147 2.924.096 0 .231-.578.3-1.285.07-.708.266-2.022.437-2.922.387-2.043.269-2.593-.17-.79Zm84.363.36c-.28 1.342-.689 5.397-.446 4.427.178-.712.918-5.886.852-5.956-.039-.042-.222.646-.406 1.53Zm-13.944 7.021-2.349.24 3.967.004c2.687.003 3.945-.067 3.899-.216-.095-.303-2.683-.316-5.517-.028Zm-3.621.436c0 .057.044.104.098.104.053 0 .097-.047.097-.104 0-.058-.044-.105-.097-.105-.054 0-.098.047-.098.105Z" clip-rule="evenodd"/></g><g filter="url(#b)"><path fill="#D1C12B" fill-rule="evenodd" d="M6.468 3.213c-4.159.934-4.57 3.705-1.272 8.567.377.556.773 1.092.88 1.191.3.278 1.634 1.323 2.937 2.304 1.175.885 5.177 3.087 5.63 3.1.133.003.682.237 1.22.52.538.282 1.098.514 1.243.515.145.002.541.132.88.29.34.16 1.216.49 1.948.734 3.494 1.167 2.879 3.388-.706 2.546a99.112 99.112 0 0 0-2.582-.54c-.969-.19-1.938-.43-2.153-.533-2.43-1.153-7.34-2.464-7.34-1.96 0 .754 2.501 4.702 3.647 5.756 1.342 1.236 4.906 3.528 5.486 3.528.138 0 .628.177 1.089.394 1.383.652 2.753 1.07 3.495 1.07 2.447-.004 3.74.836 3.041 1.975-.394.641-4.834.8-6.691.239-2.32-.701-3.555-.602-3.05.246.198.335 4.553 3.383 4.837 3.386.114 0 .599.208 1.076.46 1.881.99 9 1.462 12.221.809 3.747-.76 3.978-.815 4.378-1.043.216-.123.616-.224.89-.224 2.566 0 7.665-2.995 10.643-6.25 2.562-2.8 2.66-3.269 1.024-4.927-.34-.344-.764-.956-.942-1.358-.427-.964-5.808-6.701-7.674-8.183-1.866-1.48-5.123-3.83-6.044-4.36a84.577 84.577 0 0 1-1.883-1.139 33.05 33.05 0 0 0-2.251-1.265c-.592-.295-1.253-.625-1.468-.734-.706-.358-3.692-1.471-4.991-1.86-.7-.21-1.493-.477-1.762-.593-.269-.117-.973-.352-1.566-.523-2.803-.81-3.467-1.008-4.026-1.196a4.327 4.327 0 0 0-1.138-.202c-.296 0-.73-.113-.965-.25-1.084-.635-6.068-.938-8.06-.49ZM56.331 27.51c-1.004 1.001-2.412 4.597-3.192 8.153-.426 1.94-.52 2.162-.965 2.276-2.966.757-3.9 3.714-1.583 5.016.476.267.896.518.933.558.036.039-.075.766-.248 1.616-1.12 5.51-.802 7.5 1.2 7.5 1.187 0 1.74-.755 2.015-2.754.666-4.836 1.224-7.061 1.671-6.665.168.148.31.15.446.003.11-.118.8-.186 1.534-.152l1.332.063.521 2.193c1.335 5.62 2.22 7.521 3.504 7.521 1.007 0 1.34-1.044 1.004-3.154-.117-.736-.3-1.902-.406-2.591a50.004 50.004 0 0 0-.51-2.67c-.307-1.376-.304-1.431.08-1.88 1.31-1.539 1.013-3.385-.678-4.199-.901-.433-1.013-.854-1.055-3.972-.012-.931-.065-1.506-.116-1.276-.313 1.388-.538.79-.81-2.154-.18-1.961-.628-2.964-1.321-2.964-.134 0-.506-.235-.826-.523-.803-.721-1.773-.7-2.53.055Zm84.656-.213c-1.011.67-1.931 2.836-3.164 7.453l-.832 3.116-.873.272c-2.71.843-3.177 5.09-.56 5.09.49 0 .488.413-.01 2.716a30.985 30.985 0 0 0-.513 3.59l-.128 1.813.6.641c1.534 1.637 2.972.602 3.466-2.492.891-5.593 1.152-6.637 1.569-6.268.179.159.298.162.385.01.155-.267 2.777-.294 2.93-.03.06.103.413 1.474.784 3.046 1.276 5.408 2.946 7.894 4.11 6.12.479-.73.122-4.125-.879-8.37-.221-.934-.208-.994.38-1.755 1.07-1.385.612-3.32-.941-3.972-.795-.333-.995-1.066-.995-3.645 0-.576-.084-.805-.294-.805-.161 0-.293-.09-.293-.2 0-2.805-.634-5.296-1.414-5.56-.245-.082-.718-.371-1.051-.642-.71-.576-1.53-.622-2.277-.128Zm-44.448-.019c-.074.079-.134.902-.134 1.831 0 4.596-.747 9.46-2.114 13.764-.68 2.143-.82 1.969-1.387-1.734-.238-1.551-.556-3.431-.707-4.178-1.413-6.985-1.733-7.907-3.064-8.827-2.281-1.576-3.012.655-1.938 5.915.945 4.626 1.74 9.881 1.885 12.44.105 1.872.207 2.405.575 3.007.246.402.51.966.588 1.253 1.342 5.011 8.461-3.392 10.353-12.221 1.484-6.927.899-10.807-1.673-11.088l-1.282-.14-.136 3.249c-.194 4.645-.717 7.78-1.923 11.53-.63 1.958-1.524 3.742-1.752 3.498-.132-.14-.07-.477.189-1.018 1.947-4.079 4.12-18.99 2.52-17.28Zm68.664.409c-1.83.155-5.014.307-7.075.338-2.062.031-3.647.126-3.523.21.124.085.682.155 1.241.157.559.002 1.079.113 1.157.246.106.183-.588.21-2.804.107-4.62-.213-5.257.857-2.447 4.116.66.765 1.636 1.03 4.252 1.157l2.545.123-.027.73c-.31 8.472-.306 14.664.011 15.549.825 2.306 2.949 2.33 3.352.039.173-.987.477-.969.494.029.011.628.047.7.182.365.093-.23.175-4.201.182-8.826.008-4.625.07-8.409.139-8.409.512 0 5.176-.903 5.618-1.087.347-.145.668-.515.854-.983.163-.412.479-1.14.701-1.618.389-.835.391-.89.061-1.427-.188-.308-.295-.692-.236-.856.128-.355-.031-.353-4.677.04Zm-97.276.371c-.323.15-.708.429-.856.619-.148.19-.38.345-.517.345-.136 0-.444.17-.685.378l-.438.379.347 1.71c.208 1.031.443 1.711.59 1.711.326 0 .397.218 1.27 3.865.411 1.724 1.02 4.256 1.35 5.628.707 2.928.67 2.624.316 2.624-.402 0-.559-.423-1.083-2.925-.253-1.206-.53-2.279-.615-2.384-.192-.238-.028 1.029.358 2.758.353 1.585.263 1.996-.383 1.734-3.167-1.285-3.364 2.932-.21 4.505 1.574.785 1.896 1.031 2.13 1.628.598 1.528 2.296 2.026 3.658 1.073.407-.285.555-.284 1.428.008 10.23 3.423 14.11-4.26 6.827-13.518-6.059-7.702-10.9-11.341-13.487-10.138Zm40.738.226c-.856.325-1.784 1.189-2.207 2.053-.157.32-.482.663-.723.761-2.661 1.08-3.837 12.795-1.758 17.514 2.44 5.538 8.85 4.615 10.84-1.562 1.489-4.617.139-16.544-1.964-17.356-.165-.063-.617-.476-1.004-.916-.794-.902-1.729-1.048-3.184-.494Zm9.709-.09c-.799.342-.901.962-.661 4 .576 7.305.836 10.185 1.011 11.23.104.623.19 2.729.19 4.677 0 4.465.059 4.537 3.132 3.794 2.308-.557 5.932-.95 8.399-.91 3.057.05 3.605-.364 2.867-2.161a7.945 7.945 0 0 1-.384-1.21c-.241-1.245-3.738-1.686-7.555-.954-1.914.367-1.749.843-2.179-6.285-.207-3.429-.497-7.08-.643-8.115l-.267-1.88-.021 1.423c-.023 1.517-.312 1.74-.515.398-.135-.89-.477-2.699-.609-3.214-.159-.624-1.958-1.14-2.765-.793Zm55.551.144c-3.127 1.316-3.664 17.716-.614 18.75.226.076.755.68 1.176 1.341 4.009 6.302 10.584 4.197 12.534-4.012 1.242-5.227.859-14.5-.647-15.688l-.555-.438-.431.575c-.265.353-.621.574-.925.574-1.261 0-1.349.363-1.36 5.596-.023 10.624-1.067 13.43-4.187 11.248-.638-.446-1.783-4.682-2.067-7.652l-.171-1.776.063 2.377c.035 1.322-.009 2.25-.1 2.094-.724-1.25-.777-8.532-.066-9.145 1.806-1.561-.416-4.784-2.65-3.844Zm17.398.22c-.932.497-1.175 1.345-1.115 3.893.035 1.508-.018 2.094-.196 2.158-.183.066-.25-.4-.264-1.861-.022-2.179-.214-3.256-.467-2.62-.243.61.05 16.075.352 18.572.332 2.748.586 3.224 1.829 3.423 1.67.267 1.702.141 1.584-6.24-.112-6.04-.008-6.422.834-3.065 2.328 9.28 2.309 9.227 3.375 9.144l.831-.064.414-1.462c.707-2.499 1.329-5.603 1.297-6.477-.031-.826.983-5.613 1.658-7.834.336-1.105.741-1.39.741-.522 0 .23.087.559.194.731.106.172.38 1.253.608 2.402l.724 3.657c.478 2.417.921 5.88.921 7.195 0 1.521.194 1.883 1.349 2.507 2.308 1.249 3.522-1.346 2.683-5.733-.944-4.937-1.347-7.145-1.79-9.805-.689-4.148-1.335-6.086-2.486-7.463-.998-1.193-3.941-.473-4.152 1.017-.928 6.553-3.206 15.824-3.522 14.333-.838-3.947-2.259-12.41-2.26-13.458 0-.577-.851-2.16-1.308-2.436-.525-.317-1.23-.314-1.834.008Zm-72.324.644c-.079.303-.125 2.667-.104 5.252.06 7.146-.303 5.666-.903-3.677-.102-1.594-.082-1.712.341-2.028.576-.431.847-.248.666.453Zm74.65 2.066c.097.201.283 1.024.414 1.828s.407 2.33.613 3.391c.554 2.844.182 3.353-.462.63-1.255-5.308-1.492-7.768-.565-5.849Zm-83.599.522c.908 1.262 1.665 5.687 1.69 9.871.036 6.067-1.46 8.913-3.96 7.533-1.365-.753-1.887-2.288-.695-2.045.569.116.568.127.186-2.354-.527-3.419-.274-7.797.591-10.237.895-2.525 1.664-3.497 2.188-2.768Zm43.665.872c1.418.325 1.644.47.991.636-.595.15-2.366-.33-2.471-.672-.098-.318-.062-.317 1.48.036ZM58.21 34.61c.555 3.848.565 3.803-.81 3.809-1.005.004-1.04-.22-.422-2.745.755-3.085.92-3.228 1.232-1.064Zm84.598 1.463c.235 2.247.194 2.34-1.031 2.346-.983.004-.992-.044-.423-2.52.798-3.471 1.077-3.438 1.454.174Zm-34.252-1.916c.009.243.056.293.118.126.057-.15.049-.33-.015-.4-.065-.07-.112.054-.103.274Zm-34.96 1.63c4.268 3.182 9.82 10.568 8.997 11.967-.745 1.266-5.508 1.148-8.559-.213-.829-.37-.768-.17-1.5-4.903-.326-2.105-.765-4.73-.976-5.832-.501-2.62-.264-2.738 2.039-1.02Zm-6.55 2.426c0 .153.059.216.13.14a.207.207 0 0 0 0-.28c-.071-.075-.13-.013-.13.14Zm-11.211 6.703c-.18.737-.369 1.67-.42 2.072-.261 2.05-.305 2.924-.147 2.924.096 0 .231-.578.3-1.285.07-.708.266-2.022.437-2.922.387-2.043.269-2.593-.17-.79Zm84.363.36c-.28 1.342-.689 5.397-.446 4.427.178-.712.918-5.886.852-5.956-.039-.042-.222.646-.406 1.53Zm-13.944 7.021-2.349.24 3.967.004c2.687.003 3.945-.067 3.899-.216-.095-.303-2.683-.316-5.517-.028Zm-3.621.436c0 .057.044.104.098.104.053 0 .097-.047.097-.104 0-.058-.044-.105-.097-.105-.054 0-.098.047-.098.105Z" clip-rule="evenodd"/></g><path fill="#A332CA" fill-rule="evenodd" d="M10.468 3.213c-4.159.934-4.57 3.705-1.272 8.567.377.556.773 1.092.88 1.191.3.278 1.633 1.323 2.937 2.304 1.175.885 5.176 3.087 5.63 3.1.133.003.682.237 1.22.52.538.282 1.098.514 1.243.515.145.002.541.132.88.29.34.16 1.216.49 1.948.734 3.494 1.167 2.879 3.388-.706 2.546a99.112 99.112 0 0 0-2.582-.54c-.969-.19-1.938-.43-2.153-.533-2.43-1.153-7.34-2.464-7.34-1.96 0 .754 2.502 4.702 3.647 5.756 1.342 1.236 4.906 3.528 5.486 3.528.138 0 .628.177 1.089.394 1.383.652 2.753 1.07 3.495 1.07 2.447-.004 3.74.836 3.041 1.975-.394.641-4.834.8-6.691.239-2.32-.701-3.555-.602-3.05.246.198.335 4.553 3.383 4.837 3.386.114 0 .599.208 1.076.46 1.881.99 9 1.462 12.221.809 3.747-.76 3.978-.815 4.378-1.043.216-.123.616-.224.89-.224 2.566 0 7.665-2.995 10.643-6.25 2.562-2.8 2.66-3.269 1.024-4.927-.34-.344-.764-.956-.942-1.358-.427-.964-5.808-6.701-7.674-8.183-1.866-1.48-5.123-3.83-6.044-4.36a84.577 84.577 0 0 1-1.883-1.139 33.05 33.05 0 0 0-2.251-1.265c-.592-.295-1.253-.625-1.468-.734-.706-.358-3.692-1.471-4.991-1.86-.7-.21-1.493-.477-1.762-.593-.269-.117-.973-.352-1.566-.523-2.803-.81-3.467-1.008-4.026-1.196a4.327 4.327 0 0 0-1.138-.202c-.296 0-.73-.113-.965-.25-1.084-.635-6.068-.938-8.06-.49ZM60.331 27.51c-1.004 1.001-2.412 4.597-3.192 8.153-.426 1.94-.52 2.162-.965 2.276-2.966.757-3.9 3.714-1.583 5.016.476.267.896.518.933.558.036.039-.075.766-.248 1.616-1.12 5.51-.802 7.5 1.2 7.5 1.187 0 1.74-.755 2.015-2.754.666-4.836 1.224-7.061 1.671-6.665.168.148.31.15.446.003.11-.118.8-.186 1.534-.152l1.332.063.521 2.193c1.335 5.62 2.22 7.521 3.504 7.521 1.007 0 1.34-1.044 1.004-3.154-.117-.736-.3-1.902-.406-2.591a50.004 50.004 0 0 0-.51-2.67c-.307-1.376-.304-1.431.08-1.88 1.31-1.539 1.013-3.385-.678-4.199-.901-.433-1.013-.854-1.055-3.972-.012-.931-.065-1.506-.117-1.276-.312 1.388-.537.79-.808-2.154-.181-1.961-.629-2.964-1.322-2.964-.134 0-.506-.235-.826-.523-.803-.721-1.773-.7-2.53.055Zm84.656-.213c-1.011.67-1.931 2.836-3.164 7.453l-.832 3.116-.873.272c-2.71.843-3.177 5.09-.56 5.09.49 0 .488.413-.01 2.716a30.985 30.985 0 0 0-.513 3.59l-.128 1.813.6.641c1.534 1.637 2.972.602 3.466-2.492.891-5.593 1.152-6.637 1.569-6.268.179.159.298.162.385.01.155-.267 2.777-.294 2.93-.03.06.103.413 1.474.784 3.046 1.276 5.408 2.946 7.894 4.11 6.12.479-.73.122-4.125-.879-8.37-.221-.934-.208-.994.38-1.755 1.07-1.385.612-3.32-.941-3.972-.795-.333-.995-1.066-.995-3.645 0-.576-.084-.805-.294-.805-.161 0-.293-.09-.293-.2 0-2.805-.634-5.296-1.414-5.56-.245-.082-.718-.371-1.051-.642-.71-.576-1.53-.622-2.277-.128Zm-44.448-.019c-.074.079-.134.902-.134 1.831 0 4.596-.747 9.46-2.114 13.764-.68 2.143-.82 1.969-1.387-1.734-.238-1.551-.556-3.431-.707-4.178-1.413-6.985-1.733-7.907-3.064-8.827-2.281-1.576-3.012.655-1.938 5.915.945 4.626 1.74 9.881 1.885 12.44.105 1.872.207 2.405.575 3.007.246.402.51.966.588 1.253 1.342 5.011 8.461-3.392 10.353-12.221 1.484-6.927.899-10.807-1.673-11.088l-1.282-.14-.136 3.249c-.194 4.645-.717 7.78-1.923 11.53-.63 1.958-1.524 3.742-1.752 3.498-.132-.14-.07-.477.189-1.018 1.947-4.079 4.121-18.99 2.52-17.28Zm68.664.409c-1.83.155-5.014.307-7.075.338-2.062.031-3.647.126-3.523.21.124.085.682.155 1.241.157.559.002 1.079.113 1.157.246.106.183-.588.21-2.804.107-4.62-.213-5.257.857-2.447 4.116.66.765 1.636 1.03 4.252 1.157l2.545.123-.027.73c-.31 8.472-.306 14.664.011 15.549.825 2.306 2.949 2.33 3.352.039.173-.987.477-.969.494.029.011.628.047.7.182.365.093-.23.175-4.201.182-8.826.008-4.625.07-8.409.139-8.409.512 0 5.176-.903 5.618-1.087.347-.145.668-.515.854-.983.163-.412.479-1.14.701-1.618.389-.835.391-.89.061-1.427-.188-.308-.295-.692-.236-.856.128-.355-.031-.353-4.677.04Zm-97.276.371c-.323.15-.708.429-.856.619-.148.19-.38.345-.517.345-.136 0-.444.17-.685.378l-.438.379.347 1.71c.208 1.031.443 1.711.59 1.711.326 0 .397.218 1.27 3.865.411 1.724 1.02 4.256 1.35 5.628.707 2.928.67 2.624.316 2.624-.402 0-.559-.423-1.083-2.925-.253-1.206-.53-2.279-.615-2.384-.192-.238-.028 1.029.358 2.758.353 1.585.263 1.996-.383 1.734-3.167-1.285-3.364 2.932-.21 4.505 1.574.785 1.896 1.031 2.13 1.628.598 1.528 2.296 2.026 3.658 1.073.407-.285.555-.284 1.428.008 10.23 3.423 14.11-4.26 6.827-13.518-6.059-7.702-10.9-11.341-13.487-10.138Zm40.738.226c-.856.325-1.784 1.189-2.207 2.053-.157.32-.482.663-.723.761-2.661 1.08-3.837 12.795-1.758 17.514 2.44 5.538 8.85 4.615 10.84-1.562 1.489-4.617.139-16.544-1.964-17.356-.165-.063-.617-.476-1.004-.916-.794-.902-1.729-1.048-3.184-.494Zm9.709-.09c-.799.342-.901.962-.661 4 .576 7.305.836 10.185 1.011 11.23.104.623.19 2.729.19 4.677 0 4.465.059 4.537 3.132 3.794 2.308-.557 5.932-.95 8.399-.91 3.057.05 3.605-.364 2.867-2.161a7.945 7.945 0 0 1-.384-1.21c-.241-1.245-3.738-1.686-7.555-.954-1.914.367-1.749.843-2.179-6.285-.207-3.429-.497-7.08-.643-8.115l-.267-1.88-.021 1.423c-.023 1.517-.312 1.74-.515.398-.135-.89-.477-2.699-.609-3.214-.159-.624-1.958-1.14-2.765-.793Zm55.551.144c-3.127 1.316-3.664 17.716-.614 18.75.226.076.755.68 1.176 1.341 4.009 6.302 10.584 4.197 12.534-4.012 1.242-5.227.859-14.5-.647-15.688l-.555-.438-.431.575c-.265.353-.621.574-.925.574-1.261 0-1.349.363-1.36 5.596-.023 10.624-1.067 13.43-4.187 11.248-.638-.446-1.783-4.682-2.067-7.652l-.171-1.776.063 2.377c.035 1.322-.009 2.25-.1 2.094-.724-1.25-.777-8.532-.066-9.145 1.806-1.561-.416-4.784-2.65-3.844Zm17.398.22c-.932.497-1.175 1.345-1.115 3.893.035 1.508-.018 2.094-.196 2.158-.183.066-.25-.4-.264-1.861-.022-2.179-.214-3.256-.467-2.62-.243.61.05 16.075.352 18.572.332 2.748.586 3.224 1.829 3.423 1.67.267 1.702.141 1.584-6.24-.112-6.04-.008-6.422.834-3.065 2.328 9.28 2.309 9.227 3.375 9.144l.831-.064.414-1.462c.707-2.499 1.329-5.603 1.297-6.477-.031-.826.983-5.613 1.658-7.834.336-1.105.741-1.39.741-.522 0 .23.087.559.194.731.106.172.38 1.253.608 2.402l.724 3.657c.478 2.417.921 5.88.921 7.195 0 1.521.194 1.883 1.349 2.507 2.308 1.249 3.522-1.346 2.683-5.733-.944-4.937-1.347-7.145-1.79-9.805-.689-4.148-1.335-6.086-2.486-7.463-.998-1.193-3.941-.473-4.152 1.017-.928 6.553-3.206 15.824-3.522 14.333-.838-3.947-2.259-12.41-2.26-13.458 0-.577-.851-2.16-1.308-2.436-.525-.317-1.23-.314-1.834.008Zm-72.324.644c-.079.303-.125 2.667-.104 5.252.06 7.146-.303 5.666-.903-3.677-.102-1.594-.082-1.712.341-2.028.576-.431.847-.248.666.453Zm74.65 2.066c.097.201.283 1.024.414 1.828s.407 2.33.613 3.391c.554 2.844.182 3.353-.462.63-1.255-5.308-1.492-7.768-.565-5.849Zm-83.599.522c.908 1.262 1.665 5.687 1.69 9.871.036 6.067-1.46 8.913-3.96 7.533-1.365-.753-1.887-2.288-.695-2.045.569.116.568.127.186-2.354-.527-3.419-.274-7.797.591-10.237.895-2.525 1.664-3.497 2.188-2.768Zm43.665.872c1.418.325 1.644.47.991.636-.595.15-2.366-.33-2.471-.672-.098-.318-.062-.317 1.48.036ZM62.21 34.61c.555 3.848.565 3.803-.81 3.809-1.005.004-1.04-.22-.422-2.745.755-3.085.92-3.228 1.232-1.064Zm84.598 1.463c.235 2.247.194 2.34-1.031 2.346-.983.004-.992-.044-.423-2.52.798-3.471 1.077-3.438 1.454.174Zm-34.252-1.916c.009.243.056.293.118.126.057-.15.049-.33-.015-.4-.065-.07-.112.054-.103.274Zm-34.96 1.63c4.268 3.182 9.82 10.568 8.997 11.967-.745 1.266-5.508 1.148-8.559-.213-.829-.37-.768-.17-1.5-4.903-.326-2.105-.765-4.73-.976-5.832-.501-2.62-.264-2.738 2.039-1.02Zm-6.55 2.426c0 .153.059.216.13.14a.207.207 0 0 0 0-.28c-.071-.075-.13-.013-.13.14Zm-11.211 6.703c-.18.737-.369 1.67-.42 2.072-.261 2.05-.305 2.924-.147 2.924.096 0 .231-.578.3-1.285.07-.708.266-2.022.437-2.922.387-2.043.269-2.593-.17-.79Zm84.363.36c-.28 1.342-.689 5.397-.446 4.427.178-.712.918-5.886.852-5.956-.039-.042-.222.646-.406 1.53Zm-13.944 7.021-2.349.24 3.967.004c2.687.003 3.945-.067 3.899-.216-.095-.303-2.683-.316-5.517-.028Zm-3.621.436c0 .057.044.104.098.104.053 0 .097-.047.097-.104 0-.058-.044-.105-.097-.105-.054 0-.098.047-.098.105Z" clip-rule="evenodd"/><path fill="#fff" fill-rule="evenodd" d="M8.468 3.213c-4.159.934-4.57 3.705-1.272 8.567.377.556.773 1.092.88 1.191.3.278 1.634 1.323 2.937 2.304 1.175.885 5.176 3.087 5.63 3.1.133.003.682.237 1.22.52.538.282 1.098.514 1.243.515.145.002.541.132.88.29.34.16 1.216.49 1.948.734 3.494 1.167 2.879 3.388-.706 2.546a99.112 99.112 0 0 0-2.582-.54c-.969-.19-1.938-.43-2.153-.533-2.43-1.153-7.34-2.464-7.34-1.96 0 .754 2.502 4.702 3.647 5.756 1.342 1.236 4.906 3.528 5.486 3.528.138 0 .628.177 1.089.394 1.383.652 2.753 1.07 3.495 1.07 2.447-.004 3.74.836 3.041 1.975-.394.641-4.834.8-6.691.239-2.32-.701-3.555-.602-3.05.246.198.335 4.553 3.383 4.837 3.386.114 0 .599.208 1.076.46 1.881.99 9 1.462 12.221.809 3.747-.76 3.978-.815 4.378-1.043.216-.123.616-.224.89-.224 2.566 0 7.665-2.995 10.643-6.25 2.562-2.8 2.66-3.269 1.024-4.927-.34-.344-.764-.956-.942-1.358-.427-.964-5.808-6.701-7.674-8.183-1.866-1.48-5.123-3.83-6.044-4.36a84.577 84.577 0 0 1-1.883-1.139 33.05 33.05 0 0 0-2.251-1.265c-.592-.295-1.253-.625-1.468-.734-.706-.358-3.692-1.471-4.991-1.86-.7-.21-1.493-.477-1.762-.593-.269-.117-.973-.352-1.566-.523-2.803-.81-3.467-1.008-4.026-1.196a4.327 4.327 0 0 0-1.138-.202c-.296 0-.73-.113-.965-.25-1.084-.635-6.068-.938-8.06-.49ZM58.331 27.51c-1.004 1.001-2.412 4.597-3.192 8.153-.426 1.94-.52 2.162-.965 2.276-2.966.757-3.9 3.714-1.583 5.016.476.267.896.518.933.558.036.039-.075.766-.248 1.616-1.12 5.51-.802 7.5 1.2 7.5 1.187 0 1.74-.755 2.015-2.754.666-4.836 1.224-7.061 1.671-6.665.168.148.31.15.446.003.11-.118.8-.186 1.534-.152l1.332.063.521 2.193c1.335 5.62 2.22 7.521 3.504 7.521 1.007 0 1.34-1.044 1.004-3.154-.117-.736-.3-1.902-.406-2.591a50.004 50.004 0 0 0-.51-2.67c-.307-1.376-.304-1.431.08-1.88 1.31-1.539 1.013-3.385-.678-4.199-.901-.433-1.013-.854-1.055-3.972-.012-.931-.065-1.506-.116-1.276-.313 1.388-.538.79-.81-2.154-.18-1.961-.628-2.964-1.321-2.964-.134 0-.506-.235-.826-.523-.803-.721-1.773-.7-2.53.055Zm84.656-.213c-1.011.67-1.931 2.836-3.164 7.453l-.832 3.116-.873.272c-2.71.843-3.177 5.09-.56 5.09.49 0 .488.413-.01 2.716a30.985 30.985 0 0 0-.513 3.59l-.128 1.813.6.641c1.534 1.637 2.972.602 3.466-2.492.891-5.593 1.152-6.637 1.569-6.268.179.159.298.162.385.01.155-.267 2.777-.294 2.93-.03.06.103.413 1.474.784 3.046 1.276 5.408 2.946 7.894 4.11 6.12.479-.73.122-4.125-.879-8.37-.221-.934-.208-.994.38-1.755 1.07-1.385.612-3.32-.941-3.972-.795-.333-.995-1.066-.995-3.645 0-.576-.084-.805-.294-.805-.161 0-.293-.09-.293-.2 0-2.805-.634-5.296-1.414-5.56-.245-.082-.718-.371-1.051-.642-.71-.576-1.53-.622-2.277-.128Zm-44.448-.019c-.074.079-.134.902-.134 1.831 0 4.596-.747 9.46-2.114 13.764-.68 2.143-.82 1.969-1.387-1.734-.238-1.551-.556-3.431-.707-4.178-1.413-6.985-1.733-7.907-3.064-8.827-2.281-1.576-3.012.655-1.938 5.915.945 4.626 1.74 9.881 1.885 12.44.105 1.872.207 2.405.575 3.007.246.402.51.966.588 1.253 1.342 5.011 8.461-3.392 10.353-12.221 1.484-6.927.899-10.807-1.673-11.088l-1.282-.14-.136 3.249c-.194 4.645-.717 7.78-1.923 11.53-.63 1.958-1.524 3.742-1.752 3.498-.132-.14-.07-.477.189-1.018 1.947-4.079 4.121-18.99 2.52-17.28Zm68.664.409c-1.83.155-5.014.307-7.075.338-2.062.031-3.647.126-3.523.21.124.085.682.155 1.241.157.559.002 1.079.113 1.157.246.106.183-.588.21-2.804.107-4.62-.213-5.257.857-2.447 4.116.66.765 1.636 1.03 4.252 1.157l2.545.123-.027.73c-.31 8.472-.306 14.664.011 15.549.825 2.306 2.949 2.33 3.352.039.173-.987.477-.969.494.029.011.628.047.7.182.365.093-.23.175-4.201.182-8.826.008-4.625.07-8.409.139-8.409.512 0 5.176-.903 5.618-1.087.347-.145.668-.515.854-.983.163-.412.479-1.14.701-1.618.389-.835.391-.89.061-1.427-.188-.308-.295-.692-.236-.856.128-.355-.031-.353-4.677.04Zm-97.276.371c-.323.15-.708.429-.856.619-.148.19-.38.345-.517.345-.136 0-.444.17-.685.378l-.438.379.347 1.71c.208 1.031.443 1.711.59 1.711.326 0 .397.218 1.27 3.865.411 1.724 1.02 4.256 1.35 5.628.707 2.928.67 2.624.316 2.624-.402 0-.559-.423-1.083-2.925-.253-1.206-.53-2.279-.615-2.384-.192-.238-.028 1.029.358 2.758.353 1.585.263 1.996-.383 1.734-3.167-1.285-3.364 2.932-.21 4.505 1.574.785 1.896 1.031 2.13 1.628.598 1.528 2.296 2.026 3.658 1.073.407-.285.555-.284 1.428.008 10.23 3.423 14.11-4.26 6.827-13.518-6.059-7.702-10.9-11.341-13.487-10.138Zm40.738.226c-.856.325-1.784 1.189-2.207 2.053-.157.32-.482.663-.723.761-2.661 1.08-3.837 12.795-1.758 17.514 2.44 5.538 8.85 4.615 10.84-1.562 1.489-4.617.139-16.544-1.964-17.356-.165-.063-.617-.476-1.004-.916-.794-.902-1.729-1.048-3.184-.494Zm9.709-.09c-.799.342-.901.962-.661 4 .576 7.305.836 10.185 1.011 11.23.104.623.19 2.729.19 4.677 0 4.465.059 4.537 3.132 3.794 2.308-.557 5.932-.95 8.399-.91 3.057.05 3.605-.364 2.867-2.161a7.945 7.945 0 0 1-.384-1.21c-.241-1.245-3.738-1.686-7.555-.954-1.914.367-1.749.843-2.179-6.285-.207-3.429-.497-7.08-.643-8.115l-.267-1.88-.021 1.423c-.023 1.517-.312 1.74-.515.398-.135-.89-.477-2.699-.609-3.214-.159-.624-1.958-1.14-2.765-.793Zm55.551.144c-3.127 1.316-3.664 17.716-.614 18.75.226.076.755.68 1.176 1.341 4.009 6.302 10.584 4.197 12.534-4.012 1.242-5.227.859-14.5-.647-15.688l-.555-.438-.431.575c-.265.353-.621.574-.925.574-1.261 0-1.349.363-1.36 5.596-.023 10.624-1.067 13.43-4.187 11.248-.638-.446-1.783-4.682-2.067-7.652l-.171-1.776.063 2.377c.035 1.322-.009 2.25-.1 2.094-.724-1.25-.777-8.532-.066-9.145 1.806-1.561-.416-4.784-2.65-3.844Zm17.398.22c-.932.497-1.175 1.345-1.115 3.893.035 1.508-.018 2.094-.196 2.158-.183.066-.25-.4-.264-1.861-.022-2.179-.214-3.256-.467-2.62-.243.61.05 16.075.352 18.572.332 2.748.586 3.224 1.829 3.423 1.67.267 1.702.141 1.584-6.24-.112-6.04-.008-6.422.834-3.065 2.328 9.28 2.309 9.227 3.375 9.144l.831-.064.414-1.462c.707-2.499 1.329-5.603 1.297-6.477-.031-.826.983-5.613 1.658-7.834.336-1.105.741-1.39.741-.522 0 .23.087.559.194.731.106.172.38 1.253.608 2.402l.724 3.657c.478 2.417.921 5.88.921 7.195 0 1.521.194 1.883 1.349 2.507 2.308 1.249 3.522-1.346 2.683-5.733-.944-4.937-1.347-7.145-1.79-9.805-.689-4.148-1.335-6.086-2.486-7.463-.998-1.193-3.941-.473-4.152 1.017-.928 6.553-3.206 15.824-3.522 14.333-.838-3.947-2.259-12.41-2.26-13.458 0-.577-.851-2.16-1.308-2.436-.525-.317-1.23-.314-1.834.008Zm-72.324.644c-.079.303-.125 2.667-.104 5.252.06 7.146-.303 5.666-.903-3.677-.102-1.594-.082-1.712.341-2.028.576-.431.847-.248.666.453Zm74.65 2.066c.097.201.283 1.024.414 1.828s.407 2.33.613 3.391c.554 2.844.182 3.353-.462.63-1.255-5.308-1.492-7.768-.565-5.849Zm-83.599.522c.908 1.262 1.665 5.687 1.69 9.871.036 6.067-1.46 8.913-3.96 7.533-1.365-.753-1.887-2.288-.695-2.045.569.116.568.127.186-2.354-.527-3.419-.274-7.797.591-10.237.895-2.525 1.664-3.497 2.188-2.768Zm43.665.872c1.418.325 1.644.47.991.636-.595.15-2.366-.33-2.471-.672-.098-.318-.062-.317 1.48.036ZM60.21 34.61c.555 3.848.565 3.803-.81 3.809-1.005.004-1.04-.22-.422-2.745.755-3.085.92-3.228 1.232-1.064Zm84.598 1.463c.235 2.247.194 2.34-1.031 2.346-.983.004-.992-.044-.423-2.52.798-3.471 1.077-3.438 1.454.174Zm-34.252-1.916c.009.243.056.293.118.126.057-.15.049-.33-.015-.4-.065-.07-.112.054-.103.274Zm-34.96 1.63c4.268 3.182 9.82 10.568 8.997 11.967-.745 1.266-5.508 1.148-8.559-.213-.829-.37-.768-.17-1.5-4.903-.326-2.105-.765-4.73-.976-5.832-.501-2.62-.264-2.738 2.039-1.02Zm-6.55 2.426c0 .153.059.216.13.14a.207.207 0 0 0 0-.28c-.071-.075-.13-.013-.13.14Zm-11.211 6.703c-.18.737-.369 1.67-.42 2.072-.261 2.05-.305 2.924-.147 2.924.096 0 .231-.578.3-1.285.07-.708.266-2.022.437-2.922.387-2.043.269-2.593-.17-.79Zm84.363.36c-.28 1.342-.689 5.397-.446 4.427.178-.712.918-5.886.852-5.956-.039-.042-.222.646-.406 1.53Zm-13.944 7.021-2.349.24 3.967.004c2.687.003 3.945-.067 3.899-.216-.095-.303-2.683-.316-5.517-.028Zm-3.621.436c0 .057.044.104.098.104.053 0 .097-.047.097-.104 0-.058-.044-.105-.097-.105-.054 0-.098.047-.098.105Z" clip-rule="evenodd"/><defs><filter id="a" width="213.941" height="63.941" x="5" y="3" color-interpolation-filters="sRGB" filterUnits="userSpaceOnUse"><feFlood flood-opacity="0" result="BackgroundImageFix"/><feColorMatrix in="SourceAlpha" result="hardAlpha" values="0 0 0 0 0 0 0 0 0 0 0 0 0 0 0 0 0 0 127 0"/><feOffset dx="4" dy="10"/><feGaussianBlur stdDeviation="2"/><feComposite in2="hardAlpha" operator="out"/><feColorMatrix values="0 0 0 0 0 0 0 0 0 0 0 0 0 0 0 0 0 0 0.37 0"/><feBlend in2="BackgroundImageFix" result="effect1_dropShadow_59_801"/><feBlend in="SourceGraphic" in2="effect1_dropShadow_59_801" result="shape"/></filter><filter id="b" width="211.941" height="55.941" x="0" y="0" color-interpolation-filters="sRGB" filterUnits="userSpaceOnUse"><feFlood flood-opacity="0" result="BackgroundImageFix"/><feBlend in="SourceGraphic" in2="BackgroundImageFix" result="shape"/><feGaussianBlur result="effect1_foregroundBlur_59_801" stdDeviation="1.5"/></filter></defs></svg>